<svg width="20" height="18" viewBox="0 0 20 18" fill="none" xmlns="http://www.w3.org/2000/svg">
<g id="Icon" clip-path="url(#clip0_2_270)">
<path id="Vector" d="M0.675964 17.0498V1.1548H6.48996V0.0498047H7.81596V1.1548H12.304V0.0498047H13.63V1.1548H19.444V17.0498H0.675964ZM2.00196 15.7238H18.118V6.0168H2.00196V15.7238ZM2.00196 4.6908H18.118V2.4808H13.63V3.3648H12.304V2.4808H7.81596V3.5858H6.48996V2.4808H2.00196V4.6908ZM12.933 13.9558V11.7458H15.143V13.9558H12.933ZM8.95496 13.9558V11.7458H11.165V13.9558H8.95496ZM4.97696 13.9558V11.7458H7.18696V13.9558H4.97696ZM12.933 9.9778V7.7848H15.143V9.9778H12.933ZM8.95496 9.9778V7.7848H11.165V9.9778H8.95496ZM4.97696 9.9778V7.7848H7.18696V9.9778H4.97696Z" fill="#12101C"/>
</g>
<defs>
<clipPath id="clip0_2_270">
<rect width="18.78" height="17" fill="white" transform="matrix(1 0 0 -1 0.669983 17.0498)"/>
</clipPath>
</defs>
</svg>
