<svg width="48" height="53" viewBox="0 0 48 53" fill="none" xmlns="http://www.w3.org/2000/svg">
<g id="Icon" clip-path="url(#clip0_2_137)">
<path id="Vector" d="M14.9073 14.5399V8.73126C14.9073 8.02718 15.1633 7.41912 15.6753 6.90706C16.1874 6.395 16.7954 6.13898 17.4995 6.13898H18.8916C19.1156 6.07497 19.3476 6.09097 19.5877 6.18698C19.8277 6.28299 20.0117 6.43501 20.1397 6.64303C20.2677 6.85106 20.3317 7.07508 20.3317 7.31511C20.3317 7.55513 20.2677 7.77916 20.1397 7.98718C20.0117 8.1952 19.8277 8.34722 19.5877 8.44323C19.3476 8.53924 19.1156 8.55524 18.8916 8.49123H17.4995C17.4355 8.49123 17.3795 8.51524 17.3315 8.56324C17.2835 8.61125 17.2595 8.66725 17.2595 8.73126V12.5237L17.3555 12.4757C17.5475 12.3797 17.7395 12.3317 17.9315 12.3317H22.5879C22.8119 12.2676 23.0439 12.2836 23.284 12.3797C23.524 12.4757 23.708 12.6277 23.836 12.8357C23.964 13.0437 24.028 13.2678 24.028 13.5078C24.028 13.7478 23.964 13.9718 23.836 14.1799C23.708 14.3879 23.524 14.5399 23.284 14.6359C23.0439 14.7319 22.8119 14.7479 22.5879 14.6839H18.2195L16.6834 15.548C16.2994 15.772 15.9153 15.772 15.5313 15.548C15.1473 15.324 14.9393 14.9879 14.9073 14.5399ZM21.4358 8.34722V5.03485C21.4358 4.33078 21.6918 3.72271 22.2039 3.21066C22.7159 2.6986 23.324 2.44257 24.028 2.44257H30.2686C30.9726 2.44257 31.5727 2.6986 32.0687 3.21066C32.5648 3.72271 32.8128 4.33078 32.8128 5.03485V12.1396C32.8128 12.3637 32.7408 12.5717 32.5968 12.7637C32.4527 12.9557 32.2767 13.0997 32.0687 13.1957C31.8607 13.2918 31.6367 13.3158 31.3967 13.2678C31.1566 13.2197 30.9566 13.1157 30.7966 12.9557L28.9725 10.9395H24.028C23.324 10.9395 22.7159 10.6835 22.2039 10.1714C21.6918 9.65936 21.4358 9.0513 21.4358 8.34722ZM23.788 8.34722C23.788 8.41122 23.812 8.46723 23.86 8.51524C23.908 8.56324 23.964 8.58724 24.028 8.58724H29.5005C29.8525 8.58724 30.1406 8.71526 30.3646 8.97129L30.4606 9.1153V5.03485C30.4606 4.90684 30.3966 4.82684 30.2686 4.79483H24.028C23.964 4.79483 23.908 4.81883 23.86 4.86684C23.812 4.91484 23.788 4.97085 23.788 5.03485V8.34722ZM35.789 17.8523C35.789 16.9562 36.0051 16.1401 36.4371 15.404C36.8691 14.6679 37.4612 14.0758 38.2132 13.6278C38.9653 13.1797 39.7814 12.9557 40.6614 12.9557C41.5415 12.9557 42.3576 13.1717 43.1097 13.6038C43.8617 14.0358 44.4618 14.6279 44.9098 15.38C45.3578 16.1321 45.5819 16.9482 45.5819 17.8283C45.5819 18.7083 45.3658 19.5244 44.9338 20.2765C44.5018 21.0286 43.9177 21.6287 43.1817 22.0767C42.4456 22.5248 41.6295 22.7488 40.7335 22.7488C40.0934 22.7488 39.4693 22.6288 38.8613 22.3887C38.2532 22.1487 37.7172 21.7967 37.2532 21.3326C36.7891 20.8686 36.4291 20.3325 36.1731 19.7245C35.917 19.1164 35.789 18.4923 35.789 17.8523ZM38.1412 17.8523C38.1412 18.5563 38.3893 19.1564 38.8853 19.6525C39.3813 20.1485 39.9814 20.3965 40.6855 20.3965C41.3895 20.3965 41.9896 20.1485 42.4856 19.6525C42.9816 19.1564 43.2297 18.5563 43.2297 17.8523C43.2297 17.1482 42.9816 16.5481 42.4856 16.0521C41.9896 15.556 41.3895 15.308 40.6855 15.308C39.9814 15.308 39.3813 15.556 38.8853 16.0521C38.3893 16.5481 38.1412 17.1482 38.1412 17.8523ZM17.1154 48.0956H15.1473V37.2464C15.1473 36.9263 15.0273 36.6543 14.7872 36.4303C14.5472 36.2063 14.2672 36.0942 13.9472 36.0942L7.17859 36.0462V27.4533L15.4833 30.2376C15.7713 30.3016 16.0513 30.2616 16.3234 30.1176C16.5954 29.9736 16.7794 29.7576 16.8754 29.4695C16.9714 29.1815 16.9634 28.8935 16.8514 28.6054C16.7394 28.3174 16.5394 28.1094 16.2514 27.9814L6.41053 24.717C6.31452 24.685 6.21851 24.669 6.1225 24.669H5.88248C5.59446 24.701 5.34644 24.829 5.13842 25.053C4.9304 25.2771 4.82639 25.5491 4.82639 25.8691V37.3904C4.8904 37.6784 5.02641 37.9104 5.23443 38.0865C5.44245 38.2625 5.69047 38.3505 5.97849 38.3505H12.7471V49.2957C12.7471 49.6157 12.8671 49.8877 13.1071 50.1118C13.3471 50.3358 13.6271 50.4478 13.9472 50.4478H17.1154C17.4035 50.3838 17.6355 50.2398 17.8115 50.0158C17.9875 49.7917 18.0755 49.5437 18.0755 49.2717C18.0755 48.9997 17.9875 48.7516 17.8115 48.5276C17.6355 48.3036 17.4035 48.1596 17.1154 48.0956ZM2.13816 17.8523C2.13816 16.9562 2.35418 16.1321 2.78622 15.38C3.21826 14.6279 3.81031 14.0358 4.56237 13.6038C5.31443 13.1717 6.1385 12.9557 7.03458 12.9557C7.93066 12.9557 8.75473 13.1717 9.50679 13.6038C10.2589 14.0358 10.8509 14.6279 11.2829 15.38C11.715 16.1321 11.931 16.9562 11.931 17.8523C11.931 18.7484 11.715 19.5724 11.2829 20.3245C10.8509 21.0766 10.2589 21.6687 9.50679 22.1007C8.75473 22.5328 7.93066 22.7488 7.03458 22.7488C6.1385 22.7488 5.31443 22.5328 4.56237 22.1007C3.81031 21.6687 3.21826 21.0766 2.78622 20.3245C2.35418 19.5724 2.13816 18.7484 2.13816 17.8523ZM4.49036 17.8523C4.49036 18.5563 4.73839 19.1564 5.23443 19.6525C5.73047 20.1485 6.33052 20.3965 7.03458 20.3965C7.73864 20.3965 8.33869 20.1485 8.83473 19.6525C9.33078 19.1564 9.5788 18.5563 9.5788 17.8523C9.5788 17.1482 9.33078 16.5481 8.83473 16.0521C8.33869 15.556 7.73864 15.308 7.03458 15.308C6.33052 15.308 5.73047 15.556 5.23443 16.0521C4.73839 16.5481 4.49036 17.1482 4.49036 17.8523ZM47.31 41.4228V29.5175C47.374 29.2935 47.358 29.0615 47.262 28.8215C47.166 28.5814 47.014 28.3974 46.806 28.2694C46.598 28.1414 46.3739 28.0774 46.1339 28.0774C45.8939 28.0774 45.6699 28.1414 45.4619 28.2694C45.2538 28.3974 45.1018 28.5814 45.0058 28.8215C44.9098 29.0615 44.8938 29.2935 44.9578 29.5175V40.2707H38.3813C38.0612 40.2707 37.7892 40.3827 37.5652 40.6067C37.3412 40.8308 37.2292 41.1028 37.2292 41.4228V49.2957C37.1651 49.5197 37.1812 49.7517 37.2772 49.9918C37.3732 50.2318 37.5252 50.4158 37.7332 50.5438C37.9412 50.6718 38.1652 50.7358 38.4053 50.7358C38.6453 50.7358 38.8693 50.6718 39.0773 50.5438C39.2853 50.4158 39.4373 50.2318 39.5334 49.9918C39.6294 49.7517 39.6454 49.5197 39.5814 49.2957V42.623H44.9578V49.2957C44.8938 49.5197 44.9098 49.7517 45.0058 49.9918C45.1018 50.2318 45.2538 50.4158 45.4619 50.5438C45.6699 50.6718 45.8939 50.7358 46.1339 50.7358C46.3739 50.7358 46.598 50.6718 46.806 50.5438C47.014 50.4158 47.166 50.2318 47.262 49.9918C47.358 49.7517 47.374 49.5197 47.31 49.2957V41.4228ZM34.973 38.3985H41.7415C41.9336 38.3985 42.1096 38.3505 42.2696 38.2545H42.3176C42.3496 38.2545 42.3816 38.2385 42.4136 38.2065H42.4616L42.6056 38.0145V37.9664C42.7016 37.8064 42.7496 37.6304 42.7496 37.4384V25.8691C42.7496 25.4531 42.5816 25.125 42.2456 24.885C41.9096 24.645 41.5495 24.589 41.1655 24.717L31.3727 27.9814C31.0526 28.1094 30.8286 28.3254 30.7006 28.6294C30.5726 28.9335 30.5726 29.2455 30.7006 29.5655C30.8286 29.8856 31.0446 30.1096 31.3487 30.2376C31.6527 30.3656 31.9647 30.3656 32.2847 30.2376L40.5414 27.4533V36.0462H33.7729C33.4528 36.0462 33.1808 36.1663 32.9568 36.4063C32.7328 36.6463 32.6208 36.9263 32.6208 37.2464V48.0956H30.6046C30.3806 48.0315 30.1486 48.0475 29.9085 48.1436C29.6685 48.2396 29.4845 48.3916 29.3565 48.5996C29.2285 48.8076 29.1645 49.0317 29.1645 49.2717C29.1645 49.5117 29.2285 49.7357 29.3565 49.9438C29.4845 50.1518 29.6685 50.3038 29.9085 50.3998C30.1486 50.4958 30.3806 50.5118 30.6046 50.4478H33.7729C34.0929 50.4478 34.3729 50.3358 34.6129 50.1118C34.853 49.8877 34.973 49.6157 34.973 49.2957V38.3985ZM9.33878 40.2707H2.76222V29.5175C2.82622 29.2935 2.81022 29.0615 2.71421 28.8215C2.6182 28.5814 2.46619 28.3974 2.25817 28.2694C2.05016 28.1414 1.82614 28.0774 1.58612 28.0774C1.3461 28.0774 1.12208 28.1414 0.914059 28.2694C0.706041 28.3974 0.554028 28.5814 0.45802 28.8215C0.362012 29.0615 0.34601 29.2935 0.410016 29.5175V49.2957C0.474021 49.5837 0.618034 49.8157 0.842053 49.9918C1.06607 50.1678 1.31409 50.2558 1.58612 50.2558C1.85814 50.2558 2.10616 50.1678 2.33018 49.9918C2.5542 49.8157 2.69821 49.5837 2.76222 49.2957V42.623H8.18668V49.2957C8.25068 49.5837 8.3947 49.8157 8.61872 49.9918C8.84274 50.1678 9.09076 50.2558 9.36278 50.2558C9.6348 50.2558 9.88282 50.1678 10.1068 49.9918C10.3309 49.8157 10.4749 49.5837 10.5389 49.2957V41.4228C10.5389 41.1028 10.4189 40.8308 10.1788 40.6067C9.93883 40.3827 9.6588 40.2707 9.33878 40.2707ZM26.4762 48.0956H25.0361V34.078H32.2847C32.5728 34.014 32.8048 33.87 32.9808 33.646C33.1568 33.422 33.2448 33.1739 33.2448 32.9019C33.2448 32.6299 33.1568 32.3818 32.9808 32.1578C32.8048 31.9338 32.5728 31.7898 32.2847 31.7258H15.4833C15.2593 31.6618 15.0273 31.6778 14.7872 31.7738C14.5472 31.8698 14.3632 32.0218 14.2352 32.2298C14.1072 32.4378 14.0432 32.6619 14.0432 32.9019C14.0432 33.1419 14.1072 33.3659 14.2352 33.574C14.3632 33.782 14.5472 33.934 14.7872 34.03C15.0273 34.126 15.2593 34.142 15.4833 34.078H22.6839V48.0956H21.2438C20.9558 48.1596 20.7237 48.3036 20.5477 48.5276C20.3717 48.7516 20.2837 48.9997 20.2837 49.2717C20.2837 49.5437 20.3717 49.7917 20.5477 50.0158C20.7237 50.2398 20.9558 50.3838 21.2438 50.4478H26.4762C26.7643 50.3838 26.9963 50.2398 27.1723 50.0158C27.3483 49.7917 27.4363 49.5437 27.4363 49.2717C27.4363 48.9997 27.3483 48.7516 27.1723 48.5276C26.9963 48.3036 26.7643 48.1596 26.4762 48.0956Z" fill="white"/>
</g>
<defs>
<clipPath id="clip0_2_137">
<rect width="46.9" height="52.79" fill="white" transform="matrix(1 0 0 -1 0.410004 52.8401)"/>
</clipPath>
</defs>
</svg>
