<svg width="22" height="25" viewBox="0 0 22 25" fill="none" xmlns="http://www.w3.org/2000/svg">
<g id="Icon">
<path id="Vector" d="M19.084 14.0448L19.063 13.8348C18.979 12.8688 18.783 11.9518 18.475 11.0838C18.209 10.3558 17.845 9.6208 17.383 8.87881C17.117 8.44481 16.69 7.8358 16.102 7.0518L16.081 7.0098C15.563 6.3238 15.192 5.80581 14.968 5.4558C14.604 4.88181 14.338 4.34281 14.17 3.8388C13.96 3.2508 13.855 2.63481 13.855 1.9908C13.855 1.80881 13.778 1.6758 13.624 1.5918C13.54 1.5638 13.456 1.5498 13.372 1.5498C13.288 1.5498 13.218 1.5778 13.162 1.6338C12.196 2.33381 11.3385 3.22281 10.5895 4.3008C9.84051 5.37881 9.33301 6.4708 9.06701 7.57681C8.75901 8.7668 8.60501 10.2438 8.60501 12.0078C8.19901 11.9238 7.83501 11.7138 7.51301 11.3778C7.26101 11.0978 7.03701 10.7478 6.84101 10.3278C6.70101 10.0338 6.58901 9.7118 6.50501 9.3618C6.44901 9.12381 6.42101 8.9768 6.42101 8.9208C6.39301 8.7808 6.31251 8.67581 6.17951 8.6058C6.04651 8.5358 5.91701 8.5288 5.79101 8.5848L5.77001 8.6058C5.29401 8.88581 4.87401 9.31281 4.51001 9.8868C3.81001 10.9928 3.43201 12.4418 3.37601 14.2338C3.36201 14.3318 3.35501 14.4788 3.35501 14.6748C3.35501 16.1028 3.71201 17.4258 4.42601 18.6438C5.12601 19.8338 6.07101 20.7788 7.26101 21.4788C8.47901 22.1928 9.80201 22.5498 11.23 22.5498C12.658 22.5498 13.981 22.1928 15.199 21.4788C16.389 20.7788 17.334 19.8338 18.034 18.6438C18.748 17.4258 19.105 16.1028 19.105 14.6748L19.084 14.0448ZM11.23 21.6678C10.754 21.6678 10.3165 21.5418 9.91751 21.2898C9.51851 21.0378 9.20001 20.6983 8.96201 20.2713C8.72401 19.8443 8.60501 19.3788 8.60501 18.8748V18.7068C8.61901 18.1608 8.71001 17.6988 8.87801 17.3208C9.01801 17.6288 9.20001 17.8738 9.42401 18.0558C9.69001 18.2658 9.99101 18.3708 10.327 18.3708C10.453 18.3708 10.558 18.3253 10.642 18.2343C10.726 18.1433 10.768 18.0418 10.768 17.9298C10.768 17.0898 10.824 16.4248 10.936 15.9348C11.09 15.3328 11.384 14.7728 11.818 14.2548C11.902 14.5488 12.035 14.8428 12.217 15.1368C12.315 15.3188 12.483 15.5778 12.721 15.9138C13.057 16.3898 13.295 16.7748 13.435 17.0688C13.673 17.5588 13.813 18.0838 13.855 18.6438V18.8748C13.855 19.3788 13.736 19.8443 13.498 20.2713C13.26 20.6983 12.9415 21.0378 12.5425 21.2898C12.1435 21.5418 11.706 21.6678 11.23 21.6678ZM14.002 21.1008C14.226 20.7788 14.4045 20.4288 14.5375 20.0508C14.6705 19.6728 14.737 19.2808 14.737 18.8748L14.716 18.4968C14.674 17.8668 14.52 17.2788 14.254 16.7328C14.1 16.3968 13.834 15.9628 13.456 15.4308L13.414 15.3678C13.12 14.9478 12.924 14.6328 12.826 14.4228C12.658 14.0728 12.574 13.7158 12.574 13.3518C12.574 13.2818 12.5495 13.2083 12.5005 13.1313C12.4515 13.0543 12.392 13.0018 12.322 12.9738C12.168 12.8898 12.014 12.9038 11.86 13.0158C11.44 13.3238 11.069 13.7263 10.747 14.2233C10.425 14.7203 10.201 15.2208 10.075 15.7248C9.96301 16.2848 9.90701 16.8028 9.90701 17.2788C9.80901 17.1808 9.72501 17.0548 9.65501 16.9008C9.61301 16.7888 9.57801 16.6628 9.55001 16.5228L9.50801 16.3548C9.48001 16.2008 9.40301 16.0888 9.27701 16.0188C9.15101 15.9488 9.01801 15.9488 8.87801 16.0188C8.66801 16.1308 8.47201 16.3268 8.29001 16.6068C7.94001 17.1248 7.75801 17.8108 7.74401 18.6648C7.73001 18.7208 7.72301 18.7908 7.72301 18.8748C7.72301 19.2808 7.78951 19.6728 7.92251 20.0508C8.05551 20.4288 8.23401 20.7788 8.45801 21.1008C7.63201 20.7368 6.90051 20.2328 6.26351 19.5888C5.62651 18.9448 5.13301 18.2098 4.78301 17.3838C4.41901 16.5158 4.23701 15.6128 4.23701 14.6748V14.2758C4.27901 13.1138 4.46801 12.1058 4.80401 11.2518C5.04201 10.6498 5.34301 10.1528 5.70701 9.76081C5.93101 10.6008 6.28801 11.3008 6.77801 11.8608C7.40801 12.5748 8.16401 12.9318 9.04601 12.9318C9.15801 12.9318 9.25951 12.8863 9.35051 12.7953C9.44151 12.7043 9.48701 12.6028 9.48701 12.4908C9.48701 11.5248 9.50801 10.7478 9.55001 10.1598C9.60601 9.2638 9.72501 8.47281 9.90701 7.78681C10.131 6.90481 10.523 6.0228 11.083 5.1408C11.643 4.2588 12.294 3.49581 13.036 2.8518C13.148 3.6778 13.435 4.51081 13.897 5.35081C14.177 5.8548 14.667 6.5828 15.367 7.53481C15.941 8.3048 16.361 8.89981 16.627 9.31981C17.061 10.0198 17.397 10.6988 17.635 11.3568C17.929 12.1688 18.111 13.0158 18.181 13.8978L18.202 14.1078C18.216 14.2338 18.223 14.4228 18.223 14.6748C18.223 15.6128 18.041 16.5158 17.677 17.3838C17.327 18.2098 16.8335 18.9448 16.1965 19.5888C15.5595 20.2328 14.828 20.7368 14.002 21.1008Z" fill="#12101C"/>
</g>
</svg>
