<svg width="16" height="22" viewBox="0 0 16 22" fill="none" xmlns="http://www.w3.org/2000/svg">
<g id="Icon" clip-path="url(#clip0_2_94)">
<path id="Vector" d="M7.86952 21.2698C7.64552 21.2698 7.47752 21.1718 7.36552 20.9758L1.50652 11.5258C0.764524 10.3498 0.393524 9.06178 0.393524 7.66178C0.393524 6.31778 0.729524 5.07178 1.40152 3.92377C2.05952 2.81778 2.94152 1.93578 4.04752 1.27777C5.19552 0.605776 6.43802 0.269775 7.77502 0.269775C9.11202 0.269775 10.3545 0.605776 11.5025 1.27777C12.6225 1.93578 13.5045 2.82478 14.1485 3.94478C14.8205 5.09278 15.1565 6.33878 15.1565 7.68278C15.1565 9.02678 14.8135 10.2798 14.1275 11.4418L8.41552 20.9758C8.28952 21.1718 8.11452 21.2698 7.89052 21.2698H7.86952ZM1.61152 7.66178C1.61152 8.82378 1.91952 9.90178 2.53552 10.8958L7.86952 19.4848L13.0565 10.8118C13.6445 9.84578 13.9385 8.79928 13.9385 7.67228C13.9385 6.54528 13.6585 5.50578 13.0985 4.55378C12.5525 3.61578 11.8175 2.87378 10.8935 2.32778C9.94152 1.76778 8.90552 1.48778 7.78552 1.48778C6.66552 1.48778 5.62952 1.76778 4.67752 2.32778C3.73952 2.87378 2.99752 3.61578 2.45152 4.55378C1.89152 5.50578 1.61152 6.54178 1.61152 7.66178ZM4.08952 7.66178C4.08952 6.98978 4.25402 6.37028 4.58302 5.80328C4.91202 5.23627 5.36002 4.78827 5.92702 4.45928C6.49402 4.13028 7.11352 3.96578 7.78552 3.96578C8.45752 3.96578 9.07702 4.13028 9.64402 4.45928C10.211 4.78827 10.659 5.23627 10.988 5.80328C11.317 6.37028 11.4815 6.98978 11.4815 7.66178C11.4815 8.33378 11.317 8.95328 10.988 9.52028C10.659 10.0873 10.211 10.5353 9.64402 10.8643C9.07702 11.1933 8.45752 11.3578 7.78552 11.3578C7.11352 11.3578 6.49402 11.1933 5.92702 10.8643C5.36002 10.5353 4.91202 10.0873 4.58302 9.52028C4.25402 8.95328 4.08952 8.33378 4.08952 7.66178ZM5.30752 7.66178C5.30752 8.10978 5.41952 8.52278 5.64352 8.90078C5.86752 9.27878 6.16852 9.57628 6.54652 9.79328C6.92452 10.0103 7.33752 10.1188 7.78552 10.1188C8.23352 10.1188 8.64652 10.0103 9.02452 9.79328C9.40252 9.57628 9.70002 9.27878 9.91702 8.90078C10.134 8.52278 10.2425 8.10978 10.2425 7.66178C10.2425 7.21378 10.134 6.80078 9.91702 6.42278C9.70002 6.04478 9.40252 5.74378 9.02452 5.51978C8.64652 5.29578 8.23352 5.18377 7.78552 5.18377C7.33752 5.18377 6.92452 5.29578 6.54652 5.51978C6.16852 5.74378 5.86752 6.04478 5.64352 6.42278C5.41952 6.80078 5.30752 7.21378 5.30752 7.66178Z" fill="#12101C"/>
</g>
<defs>
<clipPath id="clip0_2_94">
<rect width="14.77" height="21" fill="white" transform="matrix(1 0 0 -1 0.390015 21.2698)"/>
</clipPath>
</defs>
</svg>
