<svg width="24" height="71" viewBox="0 0 24 71" fill="none" xmlns="http://www.w3.org/2000/svg">
<g id="Icon" clip-path="url(#clip0_2_208)">
<path id="Vector" d="M15.9907 35.9801C15.9907 34.8786 15.6079 33.9358 14.8425 33.1517C14.077 32.3675 13.1342 31.9755 12.014 31.9755C10.8938 31.9755 9.95099 32.3675 9.18553 33.1517C8.42007 33.9358 8.028 34.8786 8.00933 35.9801C7.99066 37.0817 8.38273 38.0245 9.18553 38.8086C9.98833 39.5927 10.9312 39.9848 12.014 39.9848C13.0968 39.9848 14.0397 39.5927 14.8425 38.8086C15.6453 38.0245 16.028 37.0817 15.9907 35.9801ZM18.147 35.9801C18.147 37.6791 17.5496 39.1353 16.3547 40.3489C15.1599 41.5624 13.713 42.1598 12.014 42.1412C10.3151 42.1225 8.85881 41.5251 7.64527 40.3489C6.43174 39.1727 5.83431 37.7164 5.85298 35.9801C5.87164 34.2438 6.46908 32.7876 7.64527 31.6114C8.82147 30.4352 10.2777 29.8378 12.014 29.8191C13.7503 29.8004 15.1972 30.3979 16.3547 31.6114C17.5123 32.8249 18.1097 34.2812 18.147 35.9801ZM19.8553 29.5671C19.8553 29.9591 19.7153 30.2952 19.4352 30.5752C19.1552 30.8553 18.8098 30.9953 18.3991 30.9953C17.9883 30.9953 17.6523 30.8553 17.3909 30.5752C17.1295 30.2952 16.9895 29.9591 16.9708 29.5671C16.9522 29.175 17.0922 28.8389 17.3909 28.5589C17.6896 28.2789 18.0257 28.1388 18.3991 28.1388C18.7725 28.1388 19.1179 28.2789 19.4352 28.5589C19.7526 28.8389 19.8926 29.175 19.8553 29.5671ZM12.014 26.1225C11.9393 26.1225 11.5379 26.1225 10.8098 26.1225H9.15753C8.78413 26.1225 8.28005 26.1412 7.64527 26.1785C7.0105 26.2158 6.47841 26.2625 6.04901 26.3185C5.6196 26.3745 5.24621 26.4772 4.92882 26.6266C4.40607 26.8319 3.94866 27.1307 3.55659 27.5227C3.16453 27.9148 2.85648 28.3722 2.63244 28.895C2.52042 29.1937 2.42707 29.5671 2.35239 30.0151C2.27771 30.4632 2.2217 31.0046 2.18436 31.6394C2.14702 32.2742 2.13769 32.7689 2.15636 33.1237C2.17503 33.4784 2.17503 34.0291 2.15636 34.7759C2.13769 35.5227 2.13769 35.9241 2.15636 35.9801C2.17503 36.0361 2.17503 36.4375 2.15636 37.1843C2.13769 37.9311 2.13769 38.4819 2.15636 38.8366C2.17503 39.1913 2.18436 39.6861 2.18436 40.3209C2.18436 40.9556 2.24037 41.4971 2.35239 41.9451L2.63244 43.0653C2.85648 43.5881 3.16453 44.0455 3.55659 44.4375C3.94866 44.8296 4.40607 45.1283 4.92882 45.3337C5.22754 45.4457 5.60093 45.5484 6.04901 45.6417C6.49708 45.7351 7.02917 45.7818 7.64527 45.7818C8.26138 45.7818 8.76546 45.8004 9.15753 45.8378C9.54959 45.8751 10.1003 45.8751 10.8098 45.8378C11.5193 45.8004 11.9207 45.8004 12.014 45.8378C12.1074 45.8751 12.4994 45.8751 13.1902 45.8378C13.881 45.8004 14.4317 45.8004 14.8425 45.8378C15.2532 45.8751 15.7573 45.8565 16.3547 45.7818C16.9522 45.7071 17.4936 45.6604 17.979 45.6417C18.4644 45.6231 18.8285 45.5204 19.0712 45.3337C19.5939 45.1283 20.0607 44.8296 20.4714 44.4375C20.8821 44.0455 21.1809 43.5881 21.3676 43.0653C21.4796 42.7666 21.5729 42.3932 21.6476 41.9451C21.7223 41.4971 21.7783 40.9556 21.8156 40.3209C21.853 39.6861 21.8623 39.1913 21.8436 38.8366C21.825 38.4819 21.825 37.9311 21.8436 37.1843C21.8623 36.4375 21.8623 36.0361 21.8436 35.9801C21.825 35.9241 21.825 35.5227 21.8436 34.7759C21.8623 34.0291 21.8623 33.4784 21.8436 33.1237C21.825 32.7689 21.8156 32.2742 21.8156 31.6394C21.8156 31.0046 21.7596 30.4632 21.6476 30.0151L21.3676 28.895C21.1622 28.3722 20.8635 27.9148 20.4714 27.5227C20.0793 27.1307 19.6126 26.8319 19.0712 26.6266C18.7725 26.5146 18.4084 26.4119 17.979 26.3185C17.5496 26.2252 17.0082 26.1785 16.3547 26.1785C15.7013 26.1785 15.1972 26.1598 14.8425 26.1225C14.4877 26.0852 13.937 26.0852 13.1902 26.1225C12.4434 26.1598 12.0513 26.1598 12.014 26.1225ZM24 35.9801C24 38.3699 23.972 40.0221 23.916 40.937C23.8226 43.1027 23.1785 44.7829 21.9837 45.9778C20.7888 47.1727 19.1179 47.8168 16.9708 47.9101C16.0373 47.9661 14.3851 47.9941 12.014 47.9941C9.64294 47.9941 7.99066 47.9661 7.05718 47.9101C4.89148 47.7981 3.2112 47.154 2.01634 45.9778C0.82147 44.8016 0.177363 43.1213 0.084014 40.937C0.0280047 40.0221 0 38.3699 0 35.9801C0 33.5904 0.0280047 31.9381 0.084014 31.0233C0.177363 28.8576 0.82147 27.1773 2.01634 25.9825C3.2112 24.7876 4.89148 24.1435 7.05718 24.0501C7.972 23.9941 9.62427 23.9661 12.014 23.9661C14.4037 23.9661 16.056 23.9941 16.9708 24.0501C19.1365 24.1622 20.8075 24.8063 21.9837 25.9825C23.1599 27.1587 23.804 28.8389 23.916 31.0233C23.972 31.9381 24 33.5904 24 35.9801Z" fill="white"/>
</g>
<defs>
<clipPath id="clip0_2_208">
<rect width="24" height="71" fill="white" transform="matrix(1 0 0 -1 0 71.48)"/>
</clipPath>
</defs>
</svg>
