<svg width="20" height="20" viewBox="0 0 20 20" fill="none" xmlns="http://www.w3.org/2000/svg">
<g id="Icon" clip-path="url(#clip0_4_1239)">
<path id="Vector" d="M6.01002 13.16H17.03C17.4434 13.16 17.82 13.0567 18.16 12.85C18.5 12.6433 18.7734 12.37 18.98 12.03C19.1867 11.69 19.29 11.3133 19.29 10.9V6.08C19.29 6.06667 19.2834 6.06 19.27 6.06V6.04L19.23 5.98V5.96C19.23 5.94667 19.2267 5.94 19.22 5.94C19.2134 5.94 19.21 5.94 19.21 5.94L19.15 5.88C19.15 5.86667 19.15 5.86 19.15 5.86L19.13 5.84C19.1167 5.84 19.11 5.83333 19.11 5.82C19.11 5.80667 19.1034 5.80667 19.09 5.82H19.07L19.03 5.78L18.99 5.76H18.97L18.95 5.74H18.93C18.9167 5.72667 18.9034 5.72 18.89 5.72L4.85002 3.78V1.68L4.83002 1.64V1.62L4.81002 1.58V1.56L4.79002 1.54V1.52C4.79002 1.50667 4.78669 1.5 4.78002 1.5C4.77335 1.5 4.77002 1.49667 4.77002 1.49C4.77002 1.48333 4.77002 1.48 4.77002 1.48L4.69002 1.44V1.42L4.65002 1.4L4.61002 1.36L1.49002 0.0400009C1.39669 -0.0133324 1.29669 -0.039999 1.19002 -0.039999C1.08335 -0.039999 0.983353 -0.00666618 0.89002 0.0600014C0.796686 0.126667 0.73002 0.206667 0.69002 0.300001C0.65002 0.393333 0.636686 0.496668 0.65002 0.610001C0.663353 0.723333 0.706686 0.82 0.78002 0.9C0.853353 0.98 0.943353 1.03333 1.05002 1.06L3.73002 2.2V14.36C3.73002 14.9333 3.92002 15.43 4.30002 15.85C4.68002 16.27 5.15002 16.52 5.71002 16.6C5.47002 17 5.36669 17.4367 5.40002 17.91C5.43335 18.3833 5.60002 18.8033 5.90002 19.17C6.20002 19.5367 6.57669 19.7833 7.03002 19.91C7.48335 20.0367 7.93335 20.02 8.38002 19.86C8.82669 19.7 9.18669 19.4267 9.46002 19.04C9.73335 18.6533 9.87002 18.2267 9.87002 17.76C9.87002 17.3467 9.77002 16.9667 9.57002 16.62H14.55C14.35 16.9667 14.25 17.3433 14.25 17.75C14.25 18.1567 14.35 18.5333 14.55 18.88C14.75 19.2267 15.0234 19.5 15.37 19.7C15.7167 19.9 16.09 20 16.49 20C16.89 20 17.2634 19.9 17.61 19.7C17.9567 19.5 18.23 19.2267 18.43 18.88C18.63 18.5333 18.73 18.16 18.73 17.76C18.73 17.36 18.63 16.9867 18.43 16.64C18.23 16.2933 17.9567 16.02 17.61 15.82C17.2634 15.62 16.89 15.52 16.49 15.52H6.01002C5.69002 15.52 5.41669 15.4067 5.19002 15.18C4.96335 14.9533 4.85002 14.68 4.85002 14.36V12.86C5.21002 13.06 5.59669 13.16 6.01002 13.16ZM8.77002 17.76C8.77002 17.9867 8.70669 18.1967 8.58002 18.39C8.45335 18.5833 8.28335 18.7233 8.07002 18.81C7.85669 18.8967 7.63669 18.9167 7.41002 18.87C7.18335 18.8233 6.98669 18.72 6.82002 18.56C6.65335 18.4 6.55002 18.2033 6.51002 17.97C6.47002 17.7367 6.49335 17.5167 6.58002 17.31C6.66669 17.1033 6.81002 16.9367 7.01002 16.81C7.21002 16.6833 7.42335 16.62 7.65002 16.62C7.95669 16.62 8.22002 16.7333 8.44002 16.96C8.66002 17.1867 8.77002 17.4533 8.77002 17.76ZM17.63 17.76C17.63 18.08 17.52 18.35 17.3 18.57C17.08 18.79 16.81 18.9 16.49 18.9C16.17 18.9 15.9 18.79 15.68 18.57C15.46 18.35 15.35 18.08 15.35 17.76C15.35 17.44 15.46 17.17 15.68 16.95C15.9 16.73 16.17 16.62 16.49 16.62C16.81 16.62 17.08 16.73 17.3 16.95C17.52 17.17 17.63 17.44 17.63 17.76ZM17.03 12.06H6.01002C5.69002 12.06 5.41669 11.9467 5.19002 11.72C4.96335 11.4933 4.85002 11.22 4.85002 10.9V4.9L18.19 6.74V10.9C18.19 11.22 18.0767 11.4933 17.85 11.72C17.6234 11.9467 17.35 12.06 17.03 12.06Z" fill="white"/>
</g>
<defs>
<clipPath id="clip0_4_1239">
<rect width="20" height="20" fill="white" transform="matrix(1 0 0 -1 0 20)"/>
</clipPath>
</defs>
</svg>
