<svg width="34" height="39" viewBox="0 0 34 39" fill="none" xmlns="http://www.w3.org/2000/svg">
<g id="Icon" clip-path="url(#clip0_2_369)">
<path id="Vector" d="M6.39517 36.9578C5.7853 36.9109 5.26926 36.6587 4.84704 36.2011C4.42482 35.7436 4.20199 35.2098 4.17853 34.5997L2.94706 21.1198H2.87669C2.19646 21.0729 1.63936 20.7913 1.20542 20.2751C0.771472 19.7589 0.589684 19.1606 0.660053 18.4801V14.9605C0.589684 14.2801 0.771472 13.6818 1.20542 13.1656C1.63936 12.6494 2.19646 12.3678 2.87669 12.3209H5.30444L7.73219 5.17615C7.84948 4.70687 8.09577 4.31386 8.47108 3.9971C8.84638 3.68034 9.28032 3.52195 9.77291 3.52195H10.9692V2.64206C10.9692 2.38396 11.0337 2.17279 11.1627 2.00854C11.2917 1.8443 11.4735 1.76217 11.7081 1.76217H22.0172C22.2283 1.76217 22.4042 1.8443 22.545 2.00854C22.6857 2.17279 22.7561 2.38396 22.7561 2.64206V3.52195H24.5857C25.1017 3.56888 25.5474 3.76246 25.9227 4.10268C26.298 4.44291 26.5326 4.85939 26.6264 5.35213L28.4208 12.3209H30.8486C31.5288 12.3678 32.0801 12.6552 32.5023 13.1832C32.9245 13.7111 33.1004 14.3036 33.0301 14.9605V18.4801C33.1004 19.1371 32.9245 19.7296 32.5023 20.2575C32.0801 20.7854 31.5288 21.0729 30.8486 21.1198H30.7782L29.5116 34.5997C29.4881 35.2098 29.2653 35.7436 28.8431 36.2011C28.4208 36.6587 27.9048 36.9109 27.2949 36.9578H6.39517ZM2.13781 14.9605V18.4801C2.13781 18.7382 2.20232 18.9494 2.33133 19.1136C2.46034 19.2779 2.64213 19.36 2.87669 19.36H3.61557C3.82668 19.3835 3.99674 19.4656 4.12575 19.6064C4.25477 19.7472 4.331 19.9231 4.35446 20.1343L5.65629 34.4237C5.67975 34.6349 5.75598 34.8109 5.88499 34.9517C6.014 35.0925 6.18406 35.1746 6.39517 35.198H27.2949C27.506 35.1746 27.6761 35.0925 27.8051 34.9517C27.9341 34.8109 28.0104 34.6349 28.0338 34.4237L29.2653 21.1198H6.53591C6.3248 21.1198 6.14888 21.0377 6.00814 20.8734C5.8674 20.7092 5.79703 20.498 5.79703 20.2399C5.79703 19.9818 5.8674 19.7706 6.00814 19.6064C6.14888 19.4421 6.3248 19.36 6.53591 19.36H30.8134C31.048 19.36 31.2298 19.2779 31.3588 19.1136C31.4878 18.9494 31.5523 18.7382 31.5523 18.4801H31.6227V14.9605C31.6227 14.7024 31.5582 14.4913 31.4291 14.327C31.3001 14.1628 31.1183 14.0807 30.8838 14.0807H27.9634C27.7758 14.0807 27.6116 14.022 27.4709 13.9047C27.3301 13.7874 27.248 13.6348 27.2246 13.4471L25.3246 5.88006C25.2777 5.71582 25.1838 5.5809 25.0431 5.47531C24.9024 5.36973 24.7499 5.3052 24.5857 5.28174H22.7209V6.16163C22.7209 6.41973 22.6564 6.63091 22.5274 6.79515C22.3984 6.9594 22.2166 7.04152 21.982 7.04152H11.6729C11.4618 7.04152 11.2917 6.9594 11.1627 6.79515C11.0337 6.63091 10.9692 6.41973 10.9692 6.16163V5.28174H9.77291C9.60872 5.28174 9.45625 5.32866 9.31551 5.42252C9.17477 5.51637 9.08095 5.64543 9.03403 5.80967L6.92294 12.3209H24.9376C25.1487 12.3209 25.3246 12.403 25.4653 12.5672C25.6061 12.7315 25.6764 12.9427 25.6764 13.2008C25.6764 13.4589 25.6061 13.67 25.4653 13.8343C25.3246 13.9985 25.1487 14.0807 24.9376 14.0807H2.87669C2.64213 14.0807 2.46034 14.1628 2.33133 14.327C2.20232 14.4913 2.13781 14.7024 2.13781 14.9605ZM12.447 5.28174H21.2783V3.52195H12.447V5.28174ZM22.7209 31.6785V24.6393C22.7209 24.3812 22.7913 24.1701 22.932 24.0058C23.0728 23.8416 23.2487 23.7595 23.4598 23.7595C23.6709 23.7595 23.8468 23.8416 23.9876 24.0058C24.1283 24.1701 24.1987 24.3812 24.1987 24.6393V31.6785C24.1987 31.9366 24.1342 32.1478 24.0052 32.312C23.8761 32.4762 23.6944 32.5584 23.4598 32.5584C23.2252 32.5584 23.0434 32.4762 22.9144 32.312C22.7854 32.1478 22.7209 31.9366 22.7209 31.6785ZM18.3228 31.6785V24.6393C18.3228 24.3812 18.3873 24.1701 18.5163 24.0058C18.6453 23.8416 18.8271 23.7595 19.0617 23.7595C19.2963 23.7595 19.478 23.8416 19.6071 24.0058C19.7361 24.1701 19.8006 24.3812 19.8006 24.6393V31.6785C19.8006 31.9366 19.7302 32.1478 19.5895 32.312C19.4487 32.4762 19.2728 32.5584 19.0617 32.5584C18.8506 32.5584 18.6747 32.4762 18.5339 32.312C18.3932 32.1478 18.3228 31.9366 18.3228 31.6785ZM13.8895 31.6785V24.6393C13.8895 24.3812 13.9599 24.1701 14.1006 24.0058C14.2414 23.8416 14.4173 23.7595 14.6284 23.7595C14.8395 23.7595 15.0154 23.8416 15.1562 24.0058C15.2969 24.1701 15.3673 24.3812 15.3673 24.6393V31.6785C15.3673 31.9366 15.3028 32.1478 15.1738 32.312C15.0448 32.4762 14.863 32.5584 14.6284 32.5584C14.3938 32.5584 14.2121 32.4762 14.083 32.312C13.954 32.1478 13.8895 31.9366 13.8895 31.6785ZM9.49143 31.6785V24.6393C9.49143 24.3812 9.55594 24.1701 9.68495 24.0058C9.81396 23.8416 9.99575 23.7595 10.2303 23.7595C10.4649 23.7595 10.6467 23.8416 10.7757 24.0058C10.9047 24.1701 10.9692 24.3812 10.9692 24.6393V31.6785C10.9692 31.9366 10.8988 32.1478 10.7581 32.312C10.6173 32.4762 10.4414 32.5584 10.2303 32.5584C10.0192 32.5584 9.84328 32.4762 9.70254 32.312C9.5618 32.1478 9.49143 31.9366 9.49143 31.6785Z" fill="#F22F2F"/>
</g>
<defs>
<clipPath id="clip0_2_369">
<rect width="32.37" height="38.72" fill="white" transform="matrix(1 0 0 -1 0.660034 38.72)"/>
</clipPath>
</defs>
</svg>
