<svg width="49" height="53" viewBox="0 0 49 53" fill="none" xmlns="http://www.w3.org/2000/svg">
<g id="Icon" clip-path="url(#clip0_2_127)">
<path id="Vector" d="M48.564 11.3698L38.6238 41.5206C38.5278 41.8727 38.2877 42.1608 37.9035 42.3848C37.6794 42.4808 37.4553 42.5289 37.2313 42.5289C37.0072 42.5289 36.8471 42.5128 36.7511 42.4808L34.254 41.6166C33.9979 41.5526 33.8138 41.4006 33.7018 41.1605C33.5897 40.9205 33.5737 40.6724 33.6538 40.4164C33.7338 40.1603 33.8939 39.9763 34.134 39.8642C34.3741 39.7522 34.6222 39.7442 34.8783 39.8402L36.9431 40.5124L46.6432 11.1297L27.6753 4.8883L24.9862 13.0502C24.8901 13.3062 24.722 13.4903 24.4819 13.6023C24.2418 13.7143 24.0017 13.7303 23.7616 13.6503C23.5215 13.5703 23.3375 13.4102 23.2094 13.1702C23.0814 12.9301 23.0654 12.6821 23.1614 12.426L25.9946 3.88007C26.1226 3.49598 26.3707 3.20792 26.7389 3.01588C27.107 2.82383 27.4832 2.79182 27.8674 2.91985L47.6516 9.44934C48.0358 9.60938 48.3159 9.87343 48.4919 10.2415C48.668 10.6096 48.692 10.9857 48.564 11.3698ZM28.9718 10.5056C29.0038 10.5056 29.0518 10.5056 29.1159 10.5056L29.2599 10.5536C29.484 10.5536 29.6761 10.4896 29.8362 10.3615C29.9962 10.2335 30.1083 10.0735 30.1723 9.88144L30.4604 9.01724C30.5565 8.76118 30.5485 8.51313 30.4364 8.27307C30.3244 8.03302 30.1403 7.87298 29.8842 7.79296C29.6281 7.71294 29.38 7.72895 29.1399 7.84097C28.8998 7.953 28.7477 8.13704 28.6837 8.3931L28.3956 9.25729C28.2995 9.51335 28.3075 9.76141 28.4196 10.0015C28.5316 10.2415 28.7157 10.4096 28.9718 10.5056ZM34.3981 35.5193L34.158 36.3835C34.0619 36.6395 34.0699 36.8876 34.182 37.1276C34.294 37.3677 34.4781 37.5197 34.7342 37.5837C34.7982 37.6157 34.8943 37.6317 35.0223 37.6317C35.2464 37.6317 35.4465 37.5757 35.6226 37.4637C35.7987 37.3517 35.9027 37.1996 35.9347 37.0076L36.2228 36.1434C36.3189 35.8873 36.3109 35.6393 36.1988 35.3992C36.0868 35.1592 35.9027 34.9991 35.6466 34.9191C35.3905 34.8391 35.1424 34.8551 34.9023 34.9671C34.6622 35.0792 34.4941 35.2632 34.3981 35.5193ZM27.6753 18.7154C27.9954 17.8192 28.5476 17.1791 29.332 16.795C30.1163 16.4109 30.9566 16.3549 31.853 16.627C32.7494 16.899 33.3897 17.4512 33.7738 18.2833C34.5421 17.8672 35.3665 17.8032 36.2468 18.0913C37.1272 18.3794 37.7755 18.9315 38.1917 19.7477C38.6078 20.5639 38.6719 21.4041 38.3837 22.2682C37.9996 23.4205 37.0872 24.5088 35.6466 25.533C34.8142 26.1411 33.3576 26.9573 31.2768 27.9815C31.1807 28.0456 31.0367 28.0776 30.8446 28.0776C30.4604 28.0776 30.1723 27.9015 29.9802 27.5494L29.8842 27.3574C28.8598 25.3409 28.2035 23.8366 27.9154 22.8444C27.3711 21.212 27.2911 19.8357 27.6753 18.7154ZM31.2768 25.8691C32.7494 25.1009 33.8699 24.4447 34.6382 23.9006C35.6946 23.1324 36.3349 22.3803 36.559 21.6441C36.687 21.292 36.663 20.948 36.4869 20.6119C36.3109 20.2758 36.0548 20.0517 35.7186 19.9397C35.3825 19.8277 35.0944 19.8117 34.8543 19.8917C34.6142 19.9717 34.302 20.2038 33.9179 20.5879C33.6298 20.8759 33.3016 20.964 32.9335 20.8519C32.5653 20.7399 32.3492 20.4758 32.2852 20.0597C32.1892 19.4836 32.0691 19.0915 31.925 18.8835C31.781 18.6754 31.5489 18.5234 31.2288 18.4274C31.1327 18.3954 30.9967 18.3794 30.8206 18.3794C30.6445 18.3794 30.4284 18.4274 30.1723 18.5234C29.8842 18.6834 29.6601 18.9395 29.5 19.2916C29.2439 20.0597 29.324 21.052 29.7401 22.2682C30.0283 23.1965 30.5405 24.3967 31.2768 25.8691ZM23.9777 25.389V34.7031C23.9777 34.9591 24.0658 35.1832 24.2418 35.3752C24.4179 35.5673 24.65 35.6633 24.9381 35.6633C25.2263 35.6633 25.4503 35.5753 25.6104 35.3992C25.7705 35.2232 25.8505 34.9911 25.8505 34.7031V25.389C25.8505 21.9322 25.2423 19.1315 24.0258 16.987C23.4815 15.9628 22.8092 15.0906 22.0089 14.3705C21.2086 13.6503 20.3122 13.1142 19.3198 12.7621L12.9331 9.88144C12.7731 9.78541 12.597 9.75341 12.4049 9.78541C12.2128 9.81742 12.0448 9.89744 11.9007 10.0255C11.7566 10.1535 11.6606 10.3055 11.6126 10.4816C11.5646 10.6576 11.5566 10.8256 11.5886 10.9857L12.1168 12.9541C10.4841 13.5623 8.93147 14.4985 7.45885 15.7628C5.98624 17.0271 4.67369 18.5554 3.52121 20.3478C3.42517 20.4758 3.37715 20.6519 3.37715 20.8759V26.7813C3.37715 27.0373 3.47319 27.2614 3.66527 27.4534C3.85735 27.6455 4.08145 27.7415 4.33755 27.7415H8.13113C8.83543 27.6455 9.41167 27.4214 9.85985 27.0693C10.5321 26.5252 10.9163 25.741 11.0123 24.7168C11.3005 24.5888 11.6366 24.5248 12.0208 24.5248C12.7891 24.5248 13.4453 24.7968 13.9896 25.3409C14.5338 25.8851 14.8059 26.5572 14.8059 27.3574C14.8059 28.1576 14.5338 28.7657 13.9896 29.1818C13.6054 29.4699 12.7651 29.814 11.4685 30.2141C10.172 30.6141 9.18758 31.0062 8.5153 31.3903C7.39483 32.0305 6.53047 32.8627 5.92221 33.8869C5.18591 35.1672 4.81775 36.7835 4.81775 38.736V40.2723C3.92138 40.2723 3.15306 40.5844 2.51279 41.2086C1.87253 41.8327 1.55239 42.6089 1.55239 43.5371C1.55239 43.7291 1.58441 44.0172 1.64843 44.4013C0.976155 45.0734 0.640015 45.8576 0.640015 46.7538C0.640015 47.65 0.960148 48.4182 1.60041 49.0583C2.24068 49.6985 3.009 50.0186 3.90537 50.0186H16.1505C16.4066 50.0186 16.6307 49.9225 16.8228 49.7305C17.0148 49.5384 17.1109 49.3144 17.1109 49.0583C17.1109 48.8023 17.0148 48.5782 16.8228 48.3862C16.6307 48.1941 16.4066 48.0981 16.1505 48.0981H3.90537C3.58524 48.0981 3.28111 47.9701 2.99299 47.714C2.70487 47.458 2.56081 47.1379 2.56081 46.7538C2.56081 46.4978 2.64085 46.2417 2.80091 45.9856H15.1421C15.3982 45.9856 15.6223 45.8896 15.8143 45.6976C16.0064 45.5055 16.1025 45.2815 16.1025 45.0254C16.1025 44.7694 16.0064 44.5453 15.8143 44.3533C15.6223 44.1612 15.3982 44.0652 15.1421 44.0652H3.56923C3.50521 43.8732 3.47319 43.6971 3.47319 43.5371C3.47319 43.153 3.60125 42.8329 3.85735 42.5769C4.11346 42.3208 4.43359 42.1928 4.81775 42.1928H16.1505C16.4066 42.1928 16.6307 42.0968 16.8228 41.9047C17.0148 41.7127 17.1109 41.4886 17.1109 41.2326C17.1109 40.9765 17.0148 40.7524 16.8228 40.5604C16.6307 40.3684 16.4066 40.2723 16.1505 40.2723H6.69054V38.736C6.69054 37.1996 6.94664 35.9514 7.45885 34.9911C7.90704 34.191 8.56331 33.5508 9.42768 33.0707C9.9719 32.7826 10.8363 32.4466 12.0208 32.0625L12.2128 32.0145C13.1732 31.6944 13.8775 31.4223 14.3257 31.1983C15.062 30.8142 15.6223 30.3501 16.0064 29.806C16.4866 29.1338 16.7267 28.3016 16.7267 27.3094C16.7267 26.4452 16.5186 25.653 16.1025 24.9329C15.6863 24.2127 15.118 23.6446 14.3977 23.2285C13.6774 22.8124 12.8851 22.6043 12.0208 22.6043C11.1564 22.6043 10.3561 22.8284 9.61975 23.2765C9.4917 23.3725 9.37965 23.4925 9.28362 23.6366C9.18758 23.7806 9.13955 23.9326 9.13955 24.0927C9.13955 24.7328 9.04352 25.1649 8.85143 25.389C8.65936 25.613 8.37123 25.757 7.98707 25.8211H5.29795V24.6688H5.68211C5.93822 24.6688 6.16231 24.5728 6.35439 24.3807C6.54647 24.1887 6.64251 23.9646 6.64251 23.7086C6.64251 23.4525 6.54647 23.2285 6.35439 23.0364C6.16231 22.8444 5.93822 22.7484 5.68211 22.7484H5.29795V21.116C6.41842 19.4516 7.69095 18.0353 9.11555 16.867C10.5401 15.6988 12.0208 14.9066 13.5574 14.4905C13.8135 14.4265 14.0056 14.2744 14.1336 14.0344C14.2617 13.7943 14.2937 13.5463 14.2297 13.2902L13.9896 12.426L18.4554 14.4425C18.4874 14.4745 18.5355 14.4905 18.5995 14.4905C20.2962 15.1306 21.6168 16.4029 22.5611 18.3074C23.5055 20.2118 23.9777 22.5723 23.9777 25.389ZM14.5178 17.9473C14.2617 17.9473 14.0376 18.0433 13.8455 18.2353C13.6534 18.4274 13.5574 18.6514 13.5574 18.9075C13.5574 19.1635 13.6534 19.3876 13.8455 19.5796C14.0376 19.7717 14.2617 19.8677 14.5178 19.8677H14.7099C14.966 19.8677 15.1901 19.7717 15.3822 19.5796C15.5742 19.3876 15.6703 19.1635 15.6703 18.9075C15.6703 18.6514 15.5742 18.4274 15.3822 18.2353C15.1901 18.0433 14.966 17.9473 14.7099 17.9473H14.5178ZM31.9971 39.1681V48.0021C31.9971 48.5462 31.797 49.0183 31.3968 49.4184C30.9967 49.8185 30.5245 50.0186 29.9802 50.0186H21.1926C20.6163 50.0186 20.1281 49.8185 19.728 49.4184C19.3278 49.0183 19.1277 48.5462 19.1277 48.0021V39.1681C19.1277 38.624 19.3278 38.1519 19.728 37.7518C20.1281 37.3517 20.6163 37.1516 21.1926 37.1516H29.9802C30.5245 37.1516 30.9967 37.3517 31.3968 37.7518C31.797 38.1519 31.9971 38.624 31.9971 39.1681ZM30.0763 39.1681C30.0763 39.1041 30.0443 39.0721 29.9802 39.0721H21.1926C21.0965 39.0721 21.0485 39.1041 21.0485 39.1681V48.0021C21.0485 48.0661 21.0965 48.0981 21.1926 48.0981H29.9802C30.0443 48.0981 30.0763 48.0661 30.0763 48.0021V39.1681ZM27.3391 40.8965H27.1471C26.8909 40.8965 26.6669 40.9925 26.4748 41.1845C26.2827 41.3766 26.1867 41.6006 26.1867 41.8567C26.1867 42.1128 26.2827 42.3368 26.4748 42.5289C26.6669 42.7209 26.8909 42.8169 27.1471 42.8169H27.3391C27.5952 42.8169 27.8193 42.7209 28.0114 42.5289C28.2035 42.3368 28.2995 42.1128 28.2995 41.8567C28.2995 41.6006 28.2035 41.3766 28.0114 41.1845C27.8193 40.9925 27.5952 40.8965 27.3391 40.8965ZM27.3391 44.3533H27.1471C26.8909 44.3533 26.6669 44.4493 26.4748 44.6413C26.2827 44.8334 26.1867 45.0574 26.1867 45.3135C26.1867 45.5695 26.2827 45.7936 26.4748 45.9856C26.6669 46.1777 26.8909 46.2737 27.1471 46.2737H27.3391C27.5952 46.2737 27.8193 46.1777 28.0114 45.9856C28.2035 45.7936 28.2995 45.5695 28.2995 45.3135C28.2995 45.0574 28.2035 44.8334 28.0114 44.6413C27.8193 44.4493 27.5952 44.3533 27.3391 44.3533ZM24.0258 40.8965H23.7857C23.5295 40.8965 23.3055 40.9925 23.1134 41.1845C22.9213 41.3766 22.8253 41.6006 22.8253 41.8567C22.8253 42.1128 22.9213 42.3368 23.1134 42.5289C23.3055 42.7209 23.5295 42.8169 23.7857 42.8169H24.0258C24.2819 42.8169 24.506 42.7209 24.698 42.5289C24.8901 42.3368 24.9862 42.1128 24.9862 41.8567C24.9862 41.6006 24.8901 41.3766 24.698 41.1845C24.506 40.9925 24.2819 40.8965 24.0258 40.8965ZM24.0258 44.3533H23.7857C23.5295 44.3533 23.3055 44.4493 23.1134 44.6413C22.9213 44.8334 22.8253 45.0574 22.8253 45.3135C22.8253 45.5695 22.9213 45.7936 23.1134 45.9856C23.3055 46.1777 23.5295 46.2737 23.7857 46.2737H24.0258C24.2819 46.2737 24.506 46.1777 24.698 45.9856C24.8901 45.7936 24.9862 45.5695 24.9862 45.3135C24.9862 45.0574 24.8901 44.8334 24.698 44.6413C24.506 44.4493 24.2819 44.3533 24.0258 44.3533Z" fill="white"/>
</g>
<defs>
<clipPath id="clip0_2_127">
<rect width="48.02" height="52.79" fill="white" transform="matrix(1 0 0 -1 0.640015 52.8401)"/>
</clipPath>
</defs>
</svg>
