<svg width="29" height="39" viewBox="0 0 29 39" fill="none" xmlns="http://www.w3.org/2000/svg">
<g id="Icon" clip-path="url(#clip0_2_366)">
<path id="Vector" d="M12.8347 37.0221C12.1754 37.0221 11.5513 36.8926 10.9626 36.6335C10.3738 36.3745 9.86751 35.9977 9.44362 35.5032L5.52263 31.017C5.00454 30.4282 4.61598 29.7689 4.35693 29.0388C4.09789 28.3088 3.96837 27.5552 3.96837 26.7781V24.1994C3.16769 23.9875 2.51419 23.5577 2.00788 22.9101C1.50156 22.2625 1.24841 21.5266 1.24841 20.7023C1.24841 19.8781 1.49568 19.1481 1.99021 18.5122L0.541922 14.026C0.21223 12.825 0.259329 11.6358 0.683219 10.4583C1.10711 9.28083 1.83714 8.33885 2.87332 7.63237L1.28373 2.89893C1.18953 2.59278 1.23663 2.31608 1.42503 2.06881C1.61342 1.82154 1.86069 1.69791 2.16683 1.69791H17.2503C19.0871 1.69791 20.7532 2.21599 22.2486 3.25217C23.744 4.28835 24.8214 5.66599 25.4808 7.3851C26.6583 7.97384 27.5296 8.85694 28.0948 10.0344C28.66 11.2119 28.813 12.4482 28.554 13.7435L27.6003 18.4416C28.1183 19.101 28.3774 19.8487 28.3774 20.6847C28.3774 21.5207 28.1242 22.2625 27.6179 22.9101C27.1116 23.5577 26.4581 23.9875 25.6574 24.1994V26.8487C25.6574 27.6259 25.522 28.3736 25.2512 29.0918C24.9804 29.8101 24.5977 30.4636 24.1032 31.0523L20.1822 35.5032C19.7583 35.9977 19.252 36.3745 18.6632 36.6335C18.0745 36.8926 17.4504 37.0221 16.791 37.0221H12.8347ZM5.48731 26.7781C5.60506 28.0262 6.0525 29.1448 6.82963 30.1339L10.5033 34.3021C11.0921 35.0086 11.8457 35.4325 12.7641 35.5738H16.791C17.7095 35.4796 18.4748 35.0793 19.0871 34.3728L22.9728 29.9219C23.7499 29.0506 24.1503 28.0262 24.1738 26.8487L24.2091 22.6451C23.5497 23.1632 22.8079 23.4223 21.9837 23.4223H19.2637C18.6044 23.4223 17.998 23.2574 17.4445 22.9277C16.8911 22.5981 16.4496 22.1565 16.1199 21.6031C15.7902 21.0497 15.6254 20.4433 15.6254 19.7839V17.9824H14.4243L13.8591 20.3491C13.8356 20.5139 13.8003 20.6788 13.7532 20.8436L13.1173 23.6342H15.7313V25.2238H12.0929C11.8103 25.2238 11.5748 25.1061 11.3864 24.8706C11.1981 24.6351 11.1392 24.376 11.2098 24.0934L11.4218 23.2103C11.045 23.3516 10.6682 23.4223 10.2914 23.4223H7.57144C6.7943 23.4223 6.09959 23.1986 5.48731 22.7511V26.7781ZM25.6574 22.5039C26.0342 22.339 26.3462 22.0976 26.5935 21.7797C26.8408 21.4618 26.988 21.1027 27.0351 20.7023C26.988 20.302 26.8467 19.9428 26.6112 19.6249C26.3757 19.307 26.0695 19.0656 25.6927 18.9008L25.6574 22.5039ZM2.83799 20.7023C2.86154 21.0791 2.9734 21.4206 3.17357 21.7267C3.37374 22.0329 3.63868 22.2801 3.96837 22.4685V18.9361C3.63868 19.1245 3.37374 19.3718 3.17357 19.6779C2.9734 19.9841 2.86154 20.3255 2.83799 20.7023ZM17.2856 19.7839C17.3091 20.3255 17.5093 20.7965 17.8861 21.1969C18.2629 21.5972 18.7221 21.8327 19.2637 21.9033H21.9837C22.5253 21.8562 22.9904 21.6384 23.379 21.2498C23.7676 20.8613 23.9854 20.3962 24.0325 19.8545L24.1032 19.7839L23.9972 17.9824H17.2856V19.7839ZM5.59328 19.7839C5.61683 20.3255 5.817 20.7965 6.19379 21.1969C6.57058 21.5972 7.0298 21.8327 7.57144 21.9033H10.2914C10.833 21.8327 11.2864 21.5972 11.6514 21.1969C12.0164 20.7965 12.2107 20.3255 12.2342 19.7839V17.9824H5.59328V19.7839ZM3.12059 3.28749L4.46291 7.66769C4.53356 7.87964 4.52767 8.0857 4.44525 8.28587C4.36282 8.48604 4.21564 8.62145 4.00369 8.69209C3.15591 9.18663 2.54951 9.88723 2.1845 10.7939C1.81948 11.7005 1.75472 12.6249 1.99021 13.5668L3.26188 17.4525C3.49738 17.3347 3.73287 17.2523 3.96837 17.2052V14.3793C3.96837 14.1202 4.05668 13.9024 4.2333 13.7258C4.40992 13.5492 4.62775 13.4609 4.8868 13.4609C5.78168 13.4609 6.77075 13.4255 7.85403 13.3549C10.0441 13.2136 11.669 12.9663 12.7288 12.6131L20.8887 9.89312C21.1006 9.82247 21.3067 9.82836 21.5068 9.91078C21.707 9.9932 21.8542 10.1286 21.9484 10.317L25.5868 16.64C25.6574 16.7813 25.6927 16.9344 25.6927 17.0993V17.2052C25.8811 17.2523 26.0695 17.323 26.2579 17.4172L27.0704 13.3902C27.2588 12.4953 27.1587 11.624 26.7701 10.7762C26.3816 9.92844 25.7869 9.28083 24.9863 8.83339L24.739 8.69209C24.5035 8.5508 24.3269 8.35063 24.2091 8.09158C23.6675 6.63152 22.7608 5.45993 21.4892 4.57683C20.2175 3.69372 18.8045 3.24039 17.2503 3.21685L3.12059 3.28749ZM23.6086 16.1808L20.9593 11.518L13.294 14.0967C12.352 14.4028 11.0097 14.6383 9.267 14.8032C8.06597 14.9209 6.82963 14.9916 5.55796 15.0151V16.1808H16.5438H23.6086ZM12.0929 29.2154V27.5552H13.6825C14.8835 27.5552 16.0257 27.2844 17.109 26.7428L17.9214 28.2264C16.5791 28.8858 15.1661 29.2154 13.6825 29.2154H12.0929Z" fill="#1DD5CA"/>
</g>
<defs>
<clipPath id="clip0_2_366">
<rect width="28.33" height="38.72" fill="white" transform="matrix(1 0 0 -1 0.329956 38.72)"/>
</clipPath>
</defs>
</svg>
