<svg width="18" height="61" viewBox="0 0 18 61" fill="none" xmlns="http://www.w3.org/2000/svg">
<g id="Icon" clip-path="url(#clip0_2_378)">
<path id="Vector" d="M8.19757 18.5038L1.06612 25.6352C0.874024 25.7633 0.737958 25.9314 0.65792 26.1395C0.577881 26.3476 0.557871 26.5637 0.597891 26.7878C0.63791 27.0119 0.737958 27.204 0.898036 27.3641C1.05811 27.5241 1.25021 27.6282 1.47431 27.6762C1.69842 27.7242 1.91453 27.7042 2.12263 27.6162C2.33073 27.5281 2.49881 27.3961 2.62687 27.22L7.88542 21.9854V41.0747C7.93344 41.3468 8.06151 41.5749 8.26961 41.759C8.47771 41.9431 8.72183 42.0352 9.00196 42.0352C9.2821 42.0352 9.52621 41.9431 9.73432 41.759C9.94242 41.5749 10.0705 41.3468 10.1185 41.0747V21.9854L15.353 27.22C15.5771 27.3961 15.8333 27.4761 16.1214 27.4601C16.4095 27.4441 16.6537 27.336 16.8538 27.1359C17.0539 26.9358 17.1619 26.6917 17.1779 26.4036C17.1939 26.1154 17.1139 25.8593 16.9378 25.6352L9.78234 18.5038C9.55823 18.2797 9.2941 18.1676 8.98995 18.1676C8.68581 18.1676 8.42168 18.2797 8.19757 18.5038Z" fill="white"/>
</g>
<defs>
<clipPath id="clip0_2_378">
<rect width="16.52" height="60" fill="white" transform="matrix(1 0 0 -1 0.72998 60.1738)"/>
</clipPath>
</defs>
</svg>
