<svg width="21" height="25" viewBox="0 0 21 25" fill="none" xmlns="http://www.w3.org/2000/svg">
<g id="Icon" clip-path="url(#clip0_2_275)">
<path id="Vector" d="M13.57 12.6698H7.33001C7.15668 12.6698 7.01001 12.7298 6.89001 12.8498C6.77001 12.9698 6.71001 13.1198 6.71001 13.2998C6.71001 13.4798 6.77001 13.6298 6.89001 13.7498C7.01001 13.8698 7.15668 13.9298 7.33001 13.9298H13.57C13.7433 13.9298 13.8933 13.8698 14.02 13.7498C14.1467 13.6298 14.21 13.4798 14.21 13.2998C14.21 13.1198 14.1467 12.9698 14.02 12.8498C13.8933 12.7298 13.7433 12.6698 13.57 12.6698ZM14.83 8.9298H6.07001C5.89668 8.9298 5.75001 8.98981 5.63001 9.10981C5.51001 9.2298 5.45001 9.37647 5.45001 9.5498C5.45001 9.72314 5.51001 9.86981 5.63001 9.98981C5.75001 10.1098 5.89668 10.1698 6.07001 10.1698H14.83C15.0033 10.1698 15.15 10.1098 15.27 9.98981C15.39 9.86981 15.45 9.72314 15.45 9.5498C15.45 9.37647 15.39 9.2298 15.27 9.10981C15.15 8.98981 15.0033 8.9298 14.83 8.9298ZM10.45 2.0498C9.09001 2.0498 7.79001 2.27647 6.55001 2.7298C5.36335 3.18314 4.30668 3.81314 3.38001 4.6198C2.45335 5.42647 1.73668 6.3498 1.23001 7.3898C0.710012 8.4698 0.450012 9.60314 0.450012 10.7898C0.476679 12.1765 0.823346 13.4731 1.49001 14.6798C2.15668 15.8865 3.06335 16.8698 4.21001 17.6298V22.0498L8.59001 19.3898C9.20335 19.4965 9.82335 19.5498 10.45 19.5498C11.81 19.5498 13.11 19.3231 14.35 18.8698C15.5367 18.4165 16.5933 17.7865 17.52 16.9798C18.4467 16.1731 19.1633 15.2498 19.67 14.2098C20.19 13.1165 20.45 11.9765 20.45 10.7898C20.45 9.60314 20.19 8.4698 19.67 7.3898C19.1633 6.33647 18.4467 5.40647 17.52 4.59981C16.5933 3.79314 15.5367 3.16981 14.35 2.7298C13.11 2.27647 11.81 2.0498 10.45 2.0498ZM10.45 18.2898C9.73001 18.2898 9.02334 18.2165 8.33001 18.0698L5.39001 19.8498L5.43001 16.9298C4.31001 16.3031 3.41668 15.4431 2.75001 14.3498C2.08335 13.2565 1.73668 12.0698 1.71001 10.7898C1.71001 9.4298 2.11001 8.1698 2.91001 7.0098C3.67001 5.87647 4.71001 4.97647 6.03001 4.3098C7.39001 3.6298 8.86335 3.2898 10.45 3.2898C12.0367 3.2898 13.51 3.6298 14.87 4.3098C16.19 4.97647 17.2367 5.87647 18.01 7.0098C18.81 8.1698 19.21 9.4298 19.21 10.7898C19.21 12.1498 18.81 13.4098 18.01 14.5698C17.2367 15.7031 16.19 16.6031 14.87 17.2698C13.51 17.9498 12.0367 18.2898 10.45 18.2898Z" fill="#12101C"/>
</g>
<defs>
<clipPath id="clip0_2_275">
<rect width="20" height="24" fill="white" transform="matrix(1 0 0 -1 0.450012 24.0498)"/>
</clipPath>
</defs>
</svg>
