<svg width="61" height="53" viewBox="0 0 61 53" fill="none" xmlns="http://www.w3.org/2000/svg">
<g id="Icon" clip-path="url(#clip0_2_147)">
<path id="Vector" d="M44.9813 50.4478C44.7252 50.4478 44.5172 50.3597 44.3571 50.1837C44.1971 50.0077 44.117 49.7997 44.117 49.5597C44.117 49.3196 44.2051 49.1116 44.3811 48.9356C44.5572 48.7596 44.7572 48.6716 44.9813 48.6716H59.1935V46.0793H2.05656V48.6716H38.5954C38.8195 48.6716 39.0195 48.7596 39.1956 48.9356C39.3716 49.1116 39.4597 49.3196 39.4597 49.5597C39.4597 49.7997 39.3796 50.0077 39.2196 50.1837C39.0595 50.3597 38.8515 50.4478 38.5954 50.4478H1.76847C1.35235 50.4478 1.00024 50.3037 0.712157 50.0157C0.424072 49.7277 0.280029 49.3756 0.280029 48.9596V45.7913C0.280029 45.3752 0.424072 45.0232 0.712157 44.7351C1.00024 44.4471 1.35235 44.3031 1.76847 44.3031H5.5616C5.33753 43.9191 5.20949 43.503 5.17748 43.055L5.12947 42.0949L5.08145 41.9028L4.64933 36.7183C4.36124 36.6223 4.12117 36.4543 3.92911 36.2142C3.73705 35.9742 3.62502 35.7102 3.59301 35.4221L2.58471 22.4608C2.5527 22.0127 2.68074 21.6287 2.96883 21.3086C3.06486 21.2126 3.17689 21.1326 3.30493 21.0686L3.16088 19.4844C2.80878 19.4204 2.52069 19.2524 2.29663 18.9804C2.07256 18.7083 1.96053 18.3963 1.96053 18.0443V12.5717C1.96053 12.1556 2.10457 11.8116 2.39266 11.5396C2.68074 11.2675 3.03285 11.1315 3.44897 11.1315H7.72224V6.95509H5.17748C4.92141 6.95509 4.71334 6.86708 4.5533 6.69106C4.39325 6.51504 4.31323 6.29902 4.31323 6.04299V3.30669C4.31323 3.08267 4.40125 2.88265 4.5773 2.70663C4.75336 2.53061 4.95342 2.4426 5.17748 2.4426H9.25869C10.1229 2.4426 10.8512 2.73863 11.4433 3.3307C12.0355 3.92276 12.3316 4.65084 12.3316 5.51493V11.1315H14.8283C15.0844 11.1315 15.3005 11.2115 15.4765 11.3716C15.6526 11.5316 15.7406 11.7396 15.7406 11.9956C15.7406 12.2517 15.6526 12.4677 15.4765 12.6437C15.3005 12.8197 15.0844 12.9077 14.8283 12.9077H3.73705V13.7718H28.8965V12.9077H21.3103C21.0542 12.9077 20.8381 12.8197 20.6621 12.6437C20.486 12.4677 20.398 12.2517 20.398 11.9956C20.398 11.7396 20.486 11.5316 20.6621 11.3716C20.8381 11.2115 21.0542 11.1315 21.3103 11.1315H29.1846C29.6007 11.1315 29.9528 11.2675 30.2409 11.5396C30.529 11.8116 30.673 12.1556 30.673 12.5717V18.0443C30.673 18.3963 30.561 18.7083 30.3369 18.9804C30.1129 19.2524 29.8248 19.4204 29.4727 19.4844L29.3286 21.0686C29.4567 21.1326 29.5687 21.2126 29.6647 21.3086C29.9528 21.6287 30.0809 22.0127 30.0489 22.4608L28.9925 35.4221C28.9605 35.7102 28.8565 35.9662 28.6805 36.1902C28.5044 36.4142 28.2723 36.5743 27.9842 36.6703L27.5521 41.8548C27.5521 41.9508 27.5361 42.0309 27.5041 42.0949L27.4561 43.055C27.4241 43.503 27.296 43.9191 27.072 44.3031H32.5936C32.0815 43.631 31.8254 42.8629 31.8254 41.9988V41.3748C31.8254 41.2788 31.8254 41.1908 31.8254 41.1108C31.8254 41.0307 31.8254 40.9267 31.8254 40.7987V38.3985C31.8254 38.2064 31.8734 38.0144 31.9694 37.8224C31.2332 37.1823 30.8651 36.3822 30.8651 35.4221V35.2301C30.8651 34.6861 30.9851 34.182 31.2252 33.718C31.4653 33.2539 31.8094 32.8619 32.2575 32.5418C31.9694 32.1258 31.8254 31.6617 31.8254 31.1497V31.0057C31.8254 30.5896 31.9054 30.2056 32.0655 29.8535C31.9054 29.6935 31.8254 29.5015 31.8254 29.2775V27.7413C31.8254 26.5572 32.1295 25.4611 32.7377 24.453C33.3458 23.4449 34.1541 22.6448 35.1624 22.0527C36.1707 21.4606 37.267 21.1646 38.4514 21.1646H44.5492V18.2363C44.5492 18.0123 44.6372 17.8123 44.8132 17.6362C44.9893 17.4602 45.1974 17.3722 45.4374 17.3722C45.6775 17.3722 45.8856 17.4522 46.0616 17.6122C46.2377 17.7722 46.3257 17.9803 46.3257 18.2363V21.1646H52.4235C53.6078 21.1646 54.7042 21.4606 55.7125 22.0527C56.7208 22.6448 57.521 23.4449 58.1132 24.453C58.7054 25.4611 59.0014 26.5572 59.0014 27.7413V29.2775C59.0014 29.5015 58.9214 29.6935 58.7614 29.8535C58.9214 30.2056 59.0014 30.5896 59.0014 31.0057V31.1497C59.0014 31.6617 58.8734 32.1258 58.6173 32.5418C59.0655 32.8619 59.4096 33.2539 59.6496 33.718C59.8897 34.182 60.0097 34.6861 60.0097 35.2301V35.4221C60.0097 36.3822 59.6416 37.1823 58.9054 37.8224C58.9694 38.0144 59.0014 38.2064 59.0014 38.3985V40.7987C59.0014 40.9267 59.0014 41.0307 59.0014 41.1108C59.0014 41.1908 59.0014 41.2788 59.0014 41.3748V41.9988C59.0335 42.8629 58.7934 43.631 58.2812 44.3031H59.4816C59.8977 44.3031 60.2498 44.4391 60.5379 44.7111C60.826 44.9832 60.97 45.3272 60.97 45.7432V48.9596C60.97 49.3756 60.826 49.7277 60.5379 50.0157C60.2498 50.3037 59.8977 50.4478 59.4816 50.4478H44.9813ZM6.95401 42.8629C6.98602 43.215 7.13006 43.511 7.38614 43.751C7.64221 43.9911 7.9463 44.1111 8.29841 44.1111H24.3352C24.6873 44.1111 24.9914 43.9911 25.2474 43.751C25.5035 43.511 25.6476 43.215 25.6796 42.8629V42.7669H6.95401V42.8629ZM35.6665 44.1111H55.1603C55.6725 44.1111 56.1286 43.9351 56.5287 43.583C56.9288 43.231 57.1609 42.7989 57.2249 42.2869H33.6499C33.7139 42.7989 33.938 43.231 34.3221 43.583C34.7062 43.9351 35.1544 44.1111 35.6665 44.1111ZM6.80997 40.9907H25.8236L26.2077 36.7663H6.42585L6.80997 40.9907ZM33.6499 40.4627H57.2249V38.6865H33.6019L33.6499 40.4627ZM32.6416 35.2301V35.4221C32.6416 35.8382 32.7857 36.1822 33.0738 36.4543C33.3618 36.7263 33.7139 36.8623 34.1301 36.8623H56.7448C57.1609 36.8623 57.513 36.7263 57.8011 36.4543C58.0892 36.1822 58.2332 35.8382 58.2332 35.4221V35.2301C58.2332 34.8141 58.0892 34.462 57.8011 34.174C57.513 33.886 57.1609 33.742 56.7448 33.742H54.008L51.0311 35.8062C50.775 35.9982 50.5029 36.0942 50.2148 36.0942C49.9268 36.0942 49.6547 36.0142 49.3986 35.8542L46.0856 33.742H34.1301C33.7139 33.742 33.3618 33.886 33.0738 34.174C32.7857 34.462 32.6416 34.8141 32.6416 35.2301ZM5.32152 34.9901H27.264L28.2243 22.6048H4.40925L5.32152 34.9901ZM33.6499 31.0057V31.1497C33.6499 31.3737 33.7299 31.5657 33.89 31.7257C34.05 31.8858 34.2421 31.9658 34.4662 31.9658H46.3257C46.4857 31.9658 46.6458 32.0138 46.8058 32.1098L50.1668 34.27L53.1917 32.1578C53.3518 32.0298 53.5278 31.9658 53.7199 31.9658H56.4087C56.6327 31.9658 56.8248 31.8858 56.9848 31.7257C57.1449 31.5657 57.2249 31.3737 57.2249 31.1497V31.0057C57.2249 30.7816 57.1449 30.5816 56.9848 30.4056C56.8248 30.2296 56.6327 30.1416 56.4087 30.1416H34.4662C34.2101 30.1416 34.002 30.2216 33.842 30.3816C33.6819 30.5416 33.6019 30.7496 33.6019 31.0057H33.6499ZM33.6499 27.7413V28.3654H57.2249V27.7413C57.2249 26.8772 57.0089 26.0771 56.5767 25.3411C56.1446 24.605 55.5604 24.0209 54.8242 23.5889C54.088 23.1568 53.2878 22.9408 52.4235 22.9408H38.4514C37.8112 22.9408 37.195 23.0608 36.6028 23.3008C36.0106 23.5409 35.4825 23.8849 35.0183 24.333C34.5542 24.781 34.2021 25.3011 33.962 25.8931C33.722 26.4852 33.6019 27.1012 33.6019 27.7413H33.6499ZM5.08145 20.8286H27.5521L27.6962 19.5324H4.93741L5.08145 20.8286ZM3.73705 17.7082H28.8965V15.644H3.73705V17.7082ZM6.08975 5.17889H8.63451C8.85857 5.17889 9.05863 5.2669 9.23469 5.44292C9.41074 5.61894 9.49876 5.81896 9.49876 6.04299V11.1315H10.5551V5.51493C10.5551 5.1629 10.427 4.85886 10.171 4.60283C9.91489 4.34681 9.6108 4.21879 9.25869 4.21879H6.08975V5.17889ZM11.9955 29.0855C11.9955 28.5094 12.1075 27.9493 12.3316 27.4053C12.5557 26.8612 12.8758 26.3812 13.2919 25.9651C13.708 25.5491 14.1882 25.229 14.7323 25.005C15.2765 24.781 15.8366 24.669 16.4128 24.669C17.6292 24.669 18.6615 25.101 19.5097 25.9651C20.358 26.8292 20.7821 27.8693 20.7821 29.0855C20.7821 30.3016 20.358 31.3337 19.5097 32.1818C18.6615 33.0299 17.6292 33.4539 16.4128 33.4539C15.1965 33.4539 14.1561 33.0299 13.2919 32.1818C12.4276 31.3337 11.9955 30.3016 11.9955 29.0855ZM13.82 29.0855C13.82 29.7895 14.0761 30.3976 14.5883 30.9097C15.1004 31.4217 15.7086 31.6777 16.4128 31.6777C17.117 31.6777 17.7252 31.4217 18.2374 30.9097C18.7495 30.3976 19.0056 29.7815 19.0056 29.0615C19.0056 28.3414 18.7575 27.7253 18.2614 27.2133C17.7652 26.7012 17.149 26.4452 16.4128 26.4452C15.6766 26.4452 15.0524 26.7012 14.5403 27.2133C14.0281 27.7253 13.772 28.3494 13.772 29.0855H13.82ZM46.7578 26.7812C46.7578 26.5252 46.8458 26.3092 47.0219 26.1331C47.1979 25.9571 47.414 25.8691 47.6701 25.8691C47.9262 25.8691 48.1342 25.9571 48.2943 26.1331C48.4543 26.3092 48.5343 26.5252 48.5343 26.7812C48.5343 27.0372 48.4543 27.2533 48.2943 27.4293C48.1342 27.6053 47.9262 27.6933 47.6701 27.6933C47.414 27.6933 47.1979 27.6053 47.0219 27.4293C46.8458 27.2533 46.7578 27.0372 46.7578 26.7812ZM42.3405 26.7812C42.3405 26.5252 42.4205 26.3092 42.5806 26.1331C42.7406 25.9571 42.9487 25.8691 43.2048 25.8691C43.4608 25.8691 43.6769 25.9571 43.853 26.1331C44.029 26.3092 44.117 26.5252 44.117 26.7812C44.117 27.0372 44.029 27.2533 43.853 27.4293C43.6769 27.6053 43.4608 27.6933 43.2048 27.6933C42.9487 27.6933 42.7406 27.6053 42.5806 27.4293C42.4205 27.2533 42.3405 27.0372 42.3405 26.7812ZM48.9665 24.621C48.9665 24.365 49.0545 24.1569 49.2305 23.9969C49.4066 23.8369 49.6147 23.7569 49.8547 23.7569C50.0948 23.7569 50.3029 23.8449 50.4789 24.0209C50.655 24.1969 50.743 24.405 50.743 24.645C50.743 24.885 50.663 25.093 50.5029 25.2691C50.3429 25.4451 50.1348 25.5331 49.8787 25.5331C49.6227 25.5331 49.4066 25.4451 49.2305 25.2691C49.0545 25.093 48.9665 24.877 48.9665 24.621ZM44.5492 24.621C44.5492 24.365 44.6372 24.1569 44.8132 23.9969C44.9893 23.8369 45.1974 23.7569 45.4374 23.7569C45.6775 23.7569 45.8856 23.8449 46.0616 24.0209C46.2377 24.1969 46.3257 24.405 46.3257 24.645C46.3257 24.885 46.2457 25.093 46.0856 25.2691C45.9256 25.4451 45.7175 25.5331 45.4614 25.5331C45.2054 25.5331 44.9893 25.4451 44.8132 25.2691C44.6372 25.093 44.5492 24.877 44.5492 24.621ZM40.1319 24.621C40.1319 24.397 40.2199 24.1969 40.3959 24.0209C40.572 23.8449 40.78 23.7569 41.0201 23.7569C41.2602 23.7569 41.4682 23.8369 41.6443 23.9969C41.8204 24.1569 41.9084 24.365 41.9084 24.621C41.9084 24.877 41.8204 25.093 41.6443 25.2691C41.4682 25.4451 41.2522 25.5331 40.9961 25.5331C40.74 25.5331 40.524 25.4451 40.3479 25.2691C40.1719 25.093 40.0838 24.877 40.0838 24.621H40.1319Z" fill="white"/>
</g>
<defs>
<clipPath id="clip0_2_147">
<rect width="60.69" height="52.79" fill="white" transform="matrix(1 0 0 -1 0.280029 52.8401)"/>
</clipPath>
</defs>
</svg>
