<svg width="20" height="20" viewBox="0 0 20 20" fill="none" xmlns="http://www.w3.org/2000/svg">
<g id="Icon" clip-path="url(#clip0_4_1245)">
<path id="Vector" d="M2.68064 3.56336C2.43452 3.56336 2.22585 3.64897 2.05464 3.82019C1.88342 3.9914 1.79782 4.20007 1.79782 4.44619C1.79782 4.69231 1.88342 4.90098 2.05464 5.07219C2.22585 5.24341 2.43452 5.32901 2.68064 5.32901C2.92676 5.32901 3.13543 5.24341 3.30665 5.07219C3.47786 4.90098 3.56347 4.69231 3.56347 4.44619C3.56347 4.20007 3.47786 3.9914 3.30665 3.82019C3.13543 3.64897 2.92676 3.56336 2.68064 3.56336ZM2.68064 4.91168C2.55223 4.91168 2.44255 4.8662 2.35159 4.77524C2.26063 4.68429 2.21515 4.5746 2.21515 4.44619C2.21515 4.31778 2.26063 4.20809 2.35159 4.11714C2.44255 4.02618 2.55223 3.9807 2.68064 3.9807C2.80905 3.9807 2.91874 4.02618 3.00969 4.11714C3.10065 4.20809 3.14613 4.31778 3.14613 4.44619C3.14613 4.5746 3.10065 4.68429 3.00969 4.77524C2.91874 4.8662 2.80905 4.91168 2.68064 4.91168ZM2.167 1.97428C1.76036 1.99568 1.38851 2.11339 1.05143 2.32741C0.71435 2.54143 0.452177 2.825 0.264911 3.17813C0.0776454 3.53126 -0.0106371 3.91114 6.38579e-05 4.31778V15.8266C-0.0106371 16.1155 0.0348418 16.3911 0.1365 16.6533C0.238159 16.9154 0.387972 17.1508 0.585939 17.3595C0.783906 17.5682 1.0113 17.7287 1.26812 17.8411C1.52494 17.9534 1.79782 18.0149 2.08674 18.0256H17.6245C18.0418 18.0363 18.427 17.9454 18.7802 17.7528C19.1333 17.5602 19.4195 17.2953 19.6389 16.9582C19.8583 16.6211 19.9787 16.2439 20.0001 15.8266V4.31778L17.6245 1.97428H2.167ZM18.8604 15.8266C18.8283 16.1369 18.6946 16.3964 18.4591 16.6051C18.2237 16.8138 17.9455 16.9127 17.6245 16.902H2.167C1.88877 16.9127 1.648 16.8218 1.44469 16.6292C1.24137 16.4366 1.13436 16.2011 1.12366 15.9229V6.96625C1.13436 6.95555 4.09316 6.9502 10.0001 6.9502L18.8604 6.96625V15.8266ZM18.8604 5.77845H1.12366V4.31778C1.10226 4.00745 1.19322 3.7319 1.39653 3.49113C1.59985 3.25036 1.85667 3.11928 2.167 3.09788H17.6245C17.9562 3.10858 18.2398 3.23164 18.4752 3.46706C18.7106 3.70248 18.839 3.98605 18.8604 4.31778V5.77845ZM20.0001 4.31778C19.9894 3.88974 19.8743 3.49916 19.655 3.14603C19.4356 2.7929 19.1493 2.512 18.7962 2.30333C18.4431 2.09466 18.0525 1.98498 17.6245 1.97428C17.6138 1.98498 17.7315 2.16155 17.9776 2.50397C18.2665 2.89991 18.5394 3.25839 18.7962 3.57942C19.1493 3.99675 19.4276 4.28033 19.6309 4.43014C19.877 4.61205 20.0001 4.5746 20.0001 4.31778ZM4.76732 3.56336C4.5212 3.56336 4.31253 3.64897 4.14132 3.82019C3.9701 3.9914 3.88449 4.20007 3.88449 4.44619C3.88449 4.69231 3.9701 4.90098 4.14132 5.07219C4.31253 5.24341 4.5212 5.32901 4.76732 5.32901C5.01344 5.32901 5.22211 5.24341 5.39332 5.07219C5.56454 4.90098 5.65014 4.69231 5.65014 4.44619C5.65014 4.20007 5.56454 3.9914 5.39332 3.82019C5.22211 3.64897 5.01344 3.56336 4.76732 3.56336ZM4.76732 4.91168C4.63891 4.91168 4.52922 4.8662 4.43827 4.77524C4.34731 4.68429 4.30183 4.5746 4.30183 4.44619C4.30183 4.31778 4.34731 4.20809 4.43827 4.11714C4.52922 4.02618 4.63891 3.9807 4.76732 3.9807C4.89573 3.9807 5.00541 4.02618 5.09637 4.11714C5.18733 4.20809 5.23281 4.31778 5.23281 4.44619C5.23281 4.5746 5.18733 4.68429 5.09637 4.77524C5.00541 4.8662 4.89573 4.91168 4.76732 4.91168Z" fill="white"/>
</g>
<defs>
<clipPath id="clip0_4_1245">
<rect width="20" height="20" fill="white" transform="matrix(1 0 0 -1 0 20)"/>
</clipPath>
</defs>
</svg>
