<svg width="36" height="39" viewBox="0 0 36 39" fill="none" xmlns="http://www.w3.org/2000/svg">
<g id="Icon" clip-path="url(#clip0_2_362)">
<path id="Vector" d="M34.5206 32.1692C34.286 32.1692 34.0984 32.2395 33.9576 32.3803C33.8168 32.5211 33.7465 32.7087 33.7465 32.9433V35.3715H1.75875V33.7527H32.1277C32.3858 33.7527 32.5852 33.6765 32.726 33.524C32.8667 33.3715 32.9371 33.1779 32.9371 32.9433V20.1694C32.9371 19.9113 32.8667 19.7119 32.726 19.5711C32.5852 19.4304 32.3917 19.36 32.1453 19.36C31.899 19.36 31.6996 19.4362 31.5471 19.5887C31.3946 19.7412 31.3184 19.9348 31.3184 20.1694V32.1692H7.35396V20.9436H13.7234V29.7411C13.7234 29.9757 13.7996 30.1692 13.9521 30.3217C14.1046 30.4742 14.304 30.5504 14.5503 30.5504C14.7966 30.5504 14.9902 30.4742 15.131 30.3217C15.2717 30.1692 15.3421 29.9757 15.3421 29.7411V20.1694C15.3421 19.9113 15.2717 19.7119 15.131 19.5711C14.9902 19.4304 14.7908 19.36 14.5327 19.36H6.54459C6.30999 19.36 6.11645 19.4304 5.96396 19.5711C5.81147 19.7119 5.73522 19.9113 5.73522 20.1694V32.1692H0.949385C0.714785 32.1692 0.52124 32.2395 0.36875 32.3803C0.21626 32.5211 0.140015 32.7087 0.140015 32.9433V36.1456C0.140015 36.3802 0.21626 36.5738 0.36875 36.7263C0.52124 36.8788 0.714785 36.955 0.949385 36.955H34.5206C34.7787 36.955 34.9781 36.8788 35.1189 36.7263C35.2596 36.5738 35.33 36.3802 35.33 36.1456V32.9433C35.33 32.7087 35.2538 32.5211 35.1013 32.3803C34.9488 32.2395 34.7552 32.1692 34.5206 32.1692ZM32.9371 6.48046V2.57437C32.9371 2.31631 32.8667 2.1169 32.726 1.97614C32.5852 1.83538 32.3858 1.765 32.1277 1.765H3.3423C3.1077 1.765 2.91416 1.83538 2.76167 1.97614C2.60918 2.1169 2.53293 2.31631 2.53293 2.57437V7.28983L0.949385 13.5888V13.7648C0.949385 14.4686 1.09014 15.1313 1.37166 15.753C1.65318 16.3747 2.04027 16.9084 2.53293 17.3542V29.7411C2.53293 29.9757 2.60918 30.1692 2.76167 30.3217C2.91416 30.4742 3.11357 30.5504 3.3599 30.5504C3.60623 30.5504 3.79977 30.4742 3.94053 30.3217C4.08129 30.1692 4.15167 29.9757 4.15167 29.7411V18.2339C4.55049 18.4451 5.07834 18.5506 5.73522 18.5506C6.55632 18.5506 7.31877 18.3571 8.02257 17.97C8.72637 17.5829 9.30114 17.0609 9.74689 16.404C10.1926 17.0609 10.7674 17.5829 11.4712 17.97C12.175 18.3571 12.9316 18.5506 13.7409 18.5506C14.5503 18.5506 15.3069 18.3571 16.0107 17.97C16.7145 17.5829 17.2893 17.0609 17.735 16.404C18.1808 17.0609 18.7555 17.5829 19.4593 17.97C20.1631 18.3571 20.9197 18.5506 21.7291 18.5506C22.5385 18.5506 23.295 18.3571 23.9988 17.97C24.7026 17.5829 25.2774 17.0609 25.7231 16.404C26.1689 17.0609 26.7437 17.5829 27.4475 17.97C28.1513 18.3571 28.9254 18.5506 29.77 18.5506C30.6146 18.5506 31.4005 18.3336 32.1277 17.8996C32.855 17.4656 33.4356 16.885 33.8696 16.1577C34.3036 15.4305 34.5206 14.6328 34.5206 13.7648V13.5888L32.9371 6.48046ZM4.15167 3.34855H31.3184V6.55084H4.15167V3.34855ZM29.7348 16.9671C28.8668 16.9671 28.1161 16.6504 27.4826 16.017C26.8492 15.3835 26.5325 14.6328 26.5325 13.7648C26.5325 13.5067 26.4621 13.3073 26.3214 13.1666C26.1806 13.0258 25.9812 12.9554 25.7231 12.9554H20.9373C20.7027 12.9554 20.5092 13.0258 20.3567 13.1666C20.2042 13.3073 20.1279 13.5009 20.1279 13.7472C20.1279 13.9935 20.2042 14.1929 20.3567 14.3454C20.5092 14.4979 20.7027 14.5742 20.9373 14.5742H24.8434C24.6792 15.2545 24.3097 15.8234 23.7349 16.2809C23.1601 16.7383 22.4974 16.9671 21.7467 16.9671C20.8787 16.9671 20.1279 16.6504 19.4945 16.017C18.8611 15.3835 18.5444 14.6328 18.5444 13.7648C18.5444 13.5067 18.474 13.3073 18.3332 13.1666C18.1925 13.0258 17.9931 12.9554 17.735 12.9554H12.9492C12.7146 12.9554 12.521 13.0258 12.3685 13.1666C12.2161 13.3073 12.1398 13.5009 12.1398 13.7472C12.1398 13.9935 12.2161 14.1929 12.3685 14.3454C12.521 14.4979 12.7146 14.5742 12.9492 14.5742H16.8553C16.691 15.2545 16.3157 15.8234 15.7292 16.2809C15.1427 16.7383 14.4741 16.9671 13.7234 16.9671C12.8553 16.9671 12.1105 16.6562 11.4888 16.0345C10.8671 15.4129 10.5563 14.6563 10.5563 13.7648C10.5563 13.5302 10.48 13.3366 10.3275 13.1842C10.175 13.0317 9.98149 12.9554 9.74689 12.9554H4.92585C4.69125 12.9554 4.50357 13.0317 4.36281 13.1842C4.22205 13.3366 4.15167 13.5302 4.15167 13.7648C4.15167 13.9994 4.22205 14.1929 4.36281 14.3454C4.50357 14.4979 4.69125 14.5742 4.92585 14.5742H8.86714C8.70292 15.2545 8.32755 15.8234 7.74106 16.2809C7.15455 16.7383 6.48594 16.9671 5.73522 16.9671C4.8672 16.9671 4.12821 16.668 3.51825 16.0697C2.90829 15.4715 2.57985 14.7267 2.53293 13.8352L3.97572 8.16958H8.93752V10.5625C8.93752 10.7971 9.01376 10.9906 9.16625 11.1431C9.31874 11.2956 9.51815 11.3719 9.76448 11.3719C10.0108 11.3719 10.2044 11.2956 10.3451 11.1431C10.4859 10.9906 10.5563 10.7971 10.5563 10.5625V8.16958H16.9256V10.5625C16.9256 10.7971 17.0019 10.9906 17.1544 11.1431C17.3069 11.2956 17.5063 11.3719 17.7526 11.3719C17.9989 11.3719 18.1925 11.2956 18.3332 11.1431C18.474 10.9906 18.5444 10.7971 18.5444 10.5625V8.16958H24.949V10.5625C24.949 10.7971 25.0193 10.9906 25.1601 11.1431C25.3009 11.2956 25.4885 11.3719 25.7231 11.3719C25.9577 11.3719 26.1513 11.2956 26.3038 11.1431C26.4563 10.9906 26.5325 10.7971 26.5325 10.5625V8.16958H31.6703L32.6908 12.9554H28.9254C28.6908 12.9554 28.5032 13.0317 28.3624 13.1842C28.2216 13.3366 28.1513 13.5302 28.1513 13.7648C28.1513 13.9994 28.2216 14.1929 28.3624 14.3454C28.5032 14.4979 28.6908 14.5742 28.9254 14.5742H32.8667C32.6556 15.2545 32.2626 15.8234 31.6879 16.2809C31.1131 16.7383 30.4621 16.9671 29.7348 16.9671ZM28.9254 19.36H17.735C17.5004 19.36 17.3069 19.4304 17.1544 19.5711C17.0019 19.7119 16.9256 19.9113 16.9256 20.1694V29.7411C16.9256 29.9757 17.0019 30.1692 17.1544 30.3217C17.3069 30.4742 17.5004 30.5504 17.735 30.5504H28.9254C29.1835 30.5504 29.3829 30.4742 29.5237 30.3217C29.6644 30.1692 29.7348 29.9757 29.7348 29.7411V20.1694C29.7348 19.9113 29.6644 19.7119 29.5237 19.5711C29.3829 19.4304 29.1835 19.36 28.9254 19.36ZM28.1513 28.9669H18.5444V20.9436H28.1513V28.9669Z" fill="#FFC94A"/>
</g>
<defs>
<clipPath id="clip0_2_362">
<rect width="35.19" height="38.72" fill="white" transform="matrix(1 0 0 -1 0.140015 38.72)"/>
</clipPath>
</defs>
</svg>
