<svg width="20" height="20" viewBox="0 0 20 20" fill="none" xmlns="http://www.w3.org/2000/svg">
<g id="Icon" clip-path="url(#clip0_4_1242)">
<path id="Vector" d="M10.1316 7.42328C9.75763 7.42328 9.41583 7.51385 9.10616 7.69497C8.79649 7.8761 8.55109 8.1215 8.36996 8.43117C8.18883 8.74084 8.09827 9.08265 8.09827 9.45659C8.09827 9.83053 8.18883 10.1723 8.36996 10.482C8.55109 10.7917 8.79649 11.0371 9.10616 11.2182C9.41583 11.3993 9.75763 11.4899 10.1316 11.4899C10.5055 11.4899 10.8473 11.3993 11.157 11.2182C11.4667 11.0371 11.7121 10.7917 11.8932 10.482C12.0743 10.1723 12.1649 9.83053 12.1649 9.45659C12.1649 9.08265 12.0743 8.74084 11.8932 8.43117C11.7121 8.1215 11.4667 7.8761 11.157 7.69497C10.8473 7.51385 10.5055 7.42328 10.1316 7.42328ZM10.1316 10.5258C9.83943 10.5258 9.58819 10.4207 9.37785 10.2103C9.16751 9.99997 9.06234 9.74873 9.06234 9.45659C9.06234 9.16445 9.16751 8.91321 9.37785 8.70286C9.58819 8.49252 9.83943 8.38735 10.1316 8.38735C10.4237 8.38735 10.675 8.49252 10.8853 8.70286C11.0956 8.91321 11.2008 9.16445 11.2008 9.45659C11.2008 9.74873 11.0956 9.99997 10.8853 10.2103C10.675 10.4207 10.4237 10.5258 10.1316 10.5258ZM18.2648 2.76071L5.01326 1.25326C4.75617 1.2182 4.50201 1.23573 4.25077 1.30584C3.99952 1.37596 3.77458 1.49281 3.57592 1.65641C3.37726 1.82001 3.21659 2.01283 3.09389 2.23485C2.97119 2.45688 2.89815 2.69059 2.87478 2.93599L2.62938 4.91671H1.87566C1.61857 4.9284 1.37317 4.98682 1.13946 5.092C0.905747 5.19717 0.701248 5.34324 0.525964 5.53021C0.350679 5.71718 0.216294 5.93336 0.122808 6.17876C0.0293232 6.42416 -0.0115766 6.6754 0.00010905 6.93249V16.8711C-0.0115766 17.1165 0.0264018 17.3532 0.114044 17.581C0.201687 17.8089 0.330229 18.0134 0.499671 18.1945C0.669113 18.3757 0.867769 18.5159 1.09564 18.6152C1.32351 18.7145 1.56014 18.7642 1.80554 18.7642H15.1973C15.5479 18.7759 15.878 18.6999 16.1877 18.5363C16.4973 18.3727 16.7457 18.142 16.9326 17.844C17.1196 17.546 17.2248 17.2217 17.2481 16.8711V16.4855C17.5753 16.4154 17.8792 16.281 18.1596 16.0824C18.3583 15.9188 18.519 15.7259 18.6417 15.5039C18.7644 15.2819 18.8432 15.0423 18.8783 14.7852L19.9826 4.91671C20.0176 4.56614 19.9651 4.2331 19.8248 3.91759C19.6846 3.60207 19.4772 3.34207 19.2026 3.13757C18.9279 2.93307 18.6154 2.80745 18.2648 2.76071ZM16.2665 16.8711C16.2432 17.1399 16.1263 17.3649 15.916 17.546C15.7056 17.7271 15.4661 17.8118 15.1973 17.8001H1.87566C1.63026 17.8118 1.41699 17.733 1.23587 17.5635C1.05474 17.3941 0.964176 17.1866 0.964176 16.9412V15.0657L4.7328 12.2962C4.95483 12.1209 5.20899 12.0391 5.49529 12.0508C5.78159 12.0625 6.02991 12.1677 6.24025 12.3663L8.88705 14.6976C9.29605 15.0482 9.77516 15.2293 10.3244 15.241C10.7451 15.2527 11.1365 15.1475 11.4988 14.9255L16.2841 12.156V16.8711H16.2665ZM16.2665 11.0166L10.9905 14.1016C10.7568 14.2419 10.5084 14.3003 10.2455 14.2769C9.98258 14.2535 9.75179 14.1542 9.55313 13.9789L6.87127 11.6301C6.48565 11.3029 6.04159 11.1276 5.53911 11.1043C5.03663 11.0809 4.58089 11.2211 4.17189 11.5249L0.981704 13.8562V6.93249C0.970018 6.66372 1.0489 6.43 1.21834 6.23135C1.38778 6.03269 1.60689 5.92168 1.87566 5.89831H15.1973C15.4778 5.90999 15.7202 6.01516 15.9247 6.21382C16.1292 6.41247 16.2432 6.65203 16.2665 6.93249V11.0166ZM19.0185 4.79401L17.8792 14.6625C17.8792 14.9313 17.774 15.1475 17.5637 15.3111C17.5286 15.3462 17.4585 15.3871 17.3533 15.4338C17.2832 15.4689 17.2481 15.4922 17.2481 15.5039V6.93249C17.2365 6.57023 17.1371 6.23427 16.9502 5.9246C16.7632 5.61493 16.5149 5.37245 16.2052 5.19717C15.8955 5.02188 15.5596 4.9284 15.1973 4.91671H3.59345L3.82132 3.02363C3.86806 2.77824 3.98492 2.56789 4.17189 2.39261C4.39392 2.2407 4.63931 2.17642 4.90808 2.19979L18.1421 3.7423C18.4109 3.76567 18.63 3.87961 18.7994 4.08411C18.9689 4.28861 19.0419 4.52524 19.0185 4.79401Z" fill="white"/>
</g>
<defs>
<clipPath id="clip0_4_1242">
<rect width="20" height="20" fill="white" transform="matrix(1 0 0 -1 0 20)"/>
</clipPath>
</defs>
</svg>
